<svg xmlns="http://www.w3.org/2000/svg" viewBox="-180 -90 360 180">
<!-- Natural Earth 1:110m admin_0_countries, public domain. -->
<path d="M180.00 16.07L180.00 16.56L178.73 17.01L178.60 16.64L179.41 16.38ZM178.13 17.50L178.37 17.34L178.72 17.63L178.55 18.15L177.38 18.16L177.29 17.72L177.67 17.38ZM-179.79 16.02L-180.00 16.56L-180.00 16.07Z"/>
<path d="M33.90 0.95L37.70 3.10L37.77 3.68L39.20 4.68L38.74 5.91L38.80 6.48L39.44 6.84L39.19 8.49L40.32 10.32L39.52 10.90L36.51 11.72L34.56 11.52L34.28 10.16L33.74 9.42L30.74 8.34L30.20 7.08L29.62 6.52L29.34 4.50L29.75 4.45L30.75 3.36L30.47 2.41L30.76 2.29L30.82 1.70L30.42 1.13L31.87 1.03Z"/>
<path d="M-8.67 -27.66L-8.69 -25.88L-11.97 -25.93L-11.94 -23.37L-12.87 -23.28L-13.12 -22.77L-12.93 -21.33L-16.85 -21.33L-17.06 -21.00L-17.02 -21.42L-14.75 -21.50L-13.89 -23.69L-12.50 -24.77L-11.39 -26.88L-8.79 -27.12L-8.82 -27.66Z"/>
<path d="M-122.84 -49.00L-125.62 -50.42L-127.44 -50.83L-127.99 -51.72L-127.85 -52.33L-129.13 -52.76L-129.31 -53.56L-130.51 -54.29L-130.54 -54.80L-129.98 -55.28L-130.01 -55.92L-131.71 -56.55L-133.36 -58.41L-135.48 -59.79L-137.45 -58.91L-139.04 -60.00L-141.00 -60.31L-140.99 -69.71L-136.50 -68.90L-134.41 -69.63L-132.93 -69.51L-129.79 -70.19L-129.11 -69.78L-128.36 -70.01L-128.14 -70.48L-125.76 -69.48L-124.42 -70.16L-124.29 -69.40L-122.68 -69.86L-121.47 -69.80L-117.60 -69.01L-115.25 -68.91L-113.90 -68.40L-115.30 -67.90L-113.50 -67.69L-109.95 -67.98L-108.88 -67.38L-107.79 -67.89L-108.81 -68.31L-108.17 -68.65L-106.15 -68.80L-104.34 -68.02L-103.22 -68.10L-101.45 -67.65L-98.44 -67.78L-98.56 -68.40L-97.67 -68.58L-96.12 -68.24L-96.13 -67.29L-95.49 -68.09L-94.69 -68.06L-94.23 -69.07L-96.47 -70.09L-96.39 -71.19L-95.21 -71.92L-92.88 -71.32L-91.52 -70.19L-92.41 -69.70L-90.55 -69.50L-90.55 -68.47L-89.22 -69.26L-88.02 -68.62L-88.32 -67.87L-87.35 -67.20L-85.58 -68.78L-85.52 -69.88L-82.62 -69.66L-81.28 -69.16L-81.22 -68.67L-81.96 -68.13L-81.26 -67.60L-81.39 -67.11L-83.34 -66.41L-84.74 -66.26L-85.77 -66.56L-87.32 -64.78L-88.48 -64.10L-89.91 -64.03L-90.70 -63.61L-90.77 -62.96L-91.93 -62.84L-94.24 -60.90L-94.63 -60.11L-94.68 -58.95L-93.22 -58.78L-92.30 -57.09L-90.90 -57.28L-85.01 -55.30L-82.27 -55.15L-82.44 -54.28L-82.13 -53.28L-81.40 -52.16L-79.91 -51.21L-79.14 -51.53L-78.60 -52.56L-79.12 -54.14L-79.83 -54.67L-78.23 -55.14L-76.54 -56.53L-76.62 -57.20L-77.30 -58.05L-78.52 -58.80L-77.34 -59.85L-78.11 -62.32L-77.41 -62.55L-74.67 -62.18L-73.84 -62.44L-71.68 -61.53L-71.37 -61.14L-69.59 -61.06L-69.29 -58.96L-68.37 -58.80L-67.65 -58.21L-66.20 -58.77L-64.58 -60.34L-61.40 -56.97L-61.80 -56.34L-59.57 -55.20L-57.33 -54.63L-56.94 -53.78L-55.76 -53.27L-55.68 -52.15L-57.13 -51.42L-58.77 -51.06L-60.03 -50.24L-66.40 -50.23L-67.24 -49.51L-68.51 -49.07L-71.10 -46.82L-70.26 -46.99L-68.65 -48.30L-66.55 -49.13L-65.06 -49.23L-64.17 -48.74L-65.12 -48.07L-64.47 -46.24L-63.17 -45.74L-61.52 -45.88L-60.52 -47.01L-60.45 -46.28L-59.80 -45.92L-64.25 -44.27L-65.36 -43.55L-66.12 -43.62L-66.16 -44.47L-64.43 -45.29L-67.14 -45.14L-67.79 -45.70L-67.79 -47.07L-69.24 -47.45L-70.66 -45.46L-71.51 -45.01L-74.87 -45.00L-76.82 -43.63L-78.72 -43.63L-79.17 -43.47L-78.94 -42.86L-82.69 -41.68L-83.12 -42.08L-82.14 -43.57L-82.55 -45.35L-83.59 -45.82L-83.47 -45.99L-84.14 -46.51L-84.60 -46.44L-84.88 -46.90L-88.38 -48.30L-89.27 -48.02L-91.64 -48.14L-94.33 -48.67L-94.82 -49.39L-95.16 -49.38L-95.16 -49.00L-120.00 -49.00ZM-83.99 -62.45L-83.25 -62.91L-81.88 -62.90L-83.07 -62.16L-83.77 -62.18ZM-79.78 -72.80L-80.88 -73.33L-80.83 -73.69L-78.06 -73.65L-76.34 -73.10L-76.25 -72.83L-79.49 -72.74ZM-80.32 -62.09L-79.93 -62.39L-79.27 -62.16L-79.66 -61.63L-80.36 -62.02ZM-93.61 -74.98L-94.16 -74.59L-96.82 -74.93L-96.29 -75.38L-94.85 -75.65L-93.98 -75.30ZM-93.84 -77.52L-96.17 -77.56L-96.44 -77.83L-93.72 -77.63ZM-96.75 -78.77L-95.56 -78.42L-95.83 -78.06L-97.31 -77.85L-98.12 -78.08L-98.63 -78.87L-97.34 -78.83ZM-88.15 -74.39L-92.42 -74.84L-92.89 -75.88L-93.89 -76.32L-97.12 -76.75L-96.75 -77.16L-91.61 -76.78L-90.74 -76.45L-90.97 -76.07L-89.19 -75.61L-81.13 -75.71L-80.06 -75.34L-79.83 -74.92L-80.46 -74.66L-86.10 -74.41ZM-111.26 -78.15L-109.85 -78.00L-110.19 -77.70L-112.05 -77.41L-113.53 -77.73L-112.72 -78.05ZM-110.96 -78.80L-109.66 -78.60L-112.54 -78.41L-111.50 -78.85ZM-55.60 -51.32L-56.80 -49.81L-56.14 -50.15L-55.47 -49.94L-55.82 -49.59L-53.48 -49.25L-53.79 -48.52L-53.09 -48.69L-52.65 -47.54L-53.07 -46.66L-54.18 -46.81L-53.96 -47.63L-54.24 -47.75L-55.40 -46.88L-56.00 -46.92L-55.29 -47.39L-56.25 -47.63L-59.27 -47.60L-59.42 -47.90L-58.80 -48.25L-59.23 -48.52L-58.39 -49.13L-57.36 -50.72L-56.74 -51.29L-55.41 -51.59ZM-83.88 -65.11L-81.64 -64.46L-81.55 -63.98L-80.82 -64.06L-80.10 -63.73L-80.99 -63.41L-82.55 -63.65L-83.11 -64.10L-85.52 -63.05L-85.87 -63.64L-87.22 -63.54L-86.35 -64.04L-85.88 -65.74L-85.16 -65.66L-84.98 -65.22L-84.46 -65.37ZM-78.77 -72.35L-77.82 -72.75L-74.23 -71.77L-74.10 -71.33L-72.24 -71.56L-71.20 -70.92L-68.79 -70.53L-66.97 -69.19L-68.81 -68.72L-64.86 -67.85L-63.42 -66.93L-61.85 -66.86L-62.16 -66.16L-63.92 -65.00L-66.72 -66.39L-68.02 -66.26L-68.14 -65.69L-65.32 -64.38L-64.67 -63.39L-65.01 -62.67L-68.78 -63.75L-66.17 -61.93L-71.02 -62.91L-72.24 -63.40L-71.89 -63.68L-74.83 -64.68L-74.82 -64.39L-77.71 -64.23L-78.56 -64.57L-77.90 -65.31L-73.96 -65.45L-74.29 -65.81L-73.94 -66.31L-72.65 -67.28L-73.31 -68.07L-76.87 -68.89L-76.23 -69.15L-77.29 -69.77L-78.96 -70.17L-81.31 -69.74L-84.94 -69.97L-88.68 -70.41L-89.51 -70.76L-88.47 -71.22L-89.89 -71.22L-90.21 -72.24L-89.44 -73.13L-88.41 -73.54L-85.83 -73.80L-86.56 -73.16L-85.77 -72.53L-84.85 -73.34L-82.32 -73.75L-80.60 -72.72L-80.75 -72.06ZM-94.50 -74.13L-90.51 -73.86L-92.00 -72.97L-93.20 -72.77L-94.27 -72.02L-95.41 -72.06L-96.03 -72.94L-96.02 -73.44L-95.50 -73.86ZM-122.85 -76.12L-119.10 -77.51L-116.20 -77.65L-116.34 -76.88L-117.11 -76.53L-121.50 -75.90ZM-132.71 -54.04L-131.75 -54.12L-132.05 -52.98L-131.18 -52.18L-131.58 -52.18L-133.05 -53.41L-133.18 -54.17ZM-105.49 -79.30L-100.83 -78.80L-99.67 -77.91L-105.18 -78.38L-104.21 -78.68L-105.42 -78.92ZM-123.51 -48.51L-124.01 -48.37L-125.66 -48.83L-127.03 -49.81L-128.06 -49.99L-128.36 -50.77L-125.76 -50.30L-124.92 -49.48L-123.92 -49.06ZM-121.54 -74.45L-117.56 -74.19L-115.51 -73.48L-119.22 -72.52L-120.46 -71.82L-120.46 -71.38L-123.09 -70.90L-123.62 -71.34L-125.93 -71.87L-123.94 -73.68L-124.92 -74.29ZM-107.82 -75.85L-105.88 -75.97L-105.70 -75.48L-106.31 -75.01L-112.22 -74.42L-113.74 -74.39L-113.87 -74.72L-111.79 -75.16L-117.71 -75.22L-116.35 -76.20L-115.40 -76.48L-109.07 -75.47L-110.50 -76.43L-109.58 -76.79L-108.55 -76.68L-108.21 -76.20ZM-106.52 -73.08L-105.40 -72.67L-104.46 -70.99L-100.98 -70.02L-101.09 -69.58L-102.73 -69.50L-102.09 -69.12L-102.43 -68.75L-105.96 -69.18L-113.31 -68.54L-113.85 -69.01L-116.11 -69.17L-117.34 -69.96L-112.42 -70.37L-117.90 -70.54L-118.43 -70.91L-116.11 -71.31L-119.40 -71.56L-118.56 -72.31L-115.19 -73.31L-114.17 -73.12L-114.67 -72.65L-112.44 -72.96L-111.05 -72.45L-109.92 -72.96L-109.01 -72.63L-108.19 -71.65L-107.69 -72.07L-108.40 -73.09L-107.52 -73.24ZM-100.44 -72.71L-101.54 -73.36L-100.36 -73.84L-97.38 -73.76L-97.12 -73.47L-98.05 -72.99L-96.54 -72.56L-96.72 -71.66L-98.36 -71.27L-102.50 -72.51L-102.48 -72.83ZM-106.60 -73.60L-104.50 -73.42L-105.38 -72.76L-106.94 -73.46ZM-98.50 -76.72L-97.74 -76.26L-98.16 -75.00L-100.88 -75.06L-100.86 -75.64L-102.50 -75.56L-102.57 -76.34L-98.58 -76.59ZM-96.02 -80.60L-94.30 -80.98L-94.74 -81.21L-92.41 -81.26L-91.13 -80.72L-87.81 -80.32L-87.02 -79.66L-85.81 -79.34L-89.04 -78.29L-92.88 -78.34L-93.95 -78.75L-93.94 -79.11L-93.15 -79.38L-94.97 -79.37L-96.71 -80.16ZM-91.59 -81.89L-85.50 -82.65L-83.18 -82.32L-82.42 -82.86L-79.31 -83.13L-72.83 -83.23L-61.85 -82.63L-61.89 -82.36L-67.66 -81.50L-65.48 -81.51L-69.47 -80.62L-71.18 -79.80L-76.91 -79.32L-75.53 -79.20L-76.22 -79.02L-75.39 -78.53L-79.76 -77.21L-79.62 -76.98L-77.91 -77.02L-77.89 -76.78L-80.56 -76.18L-89.49 -76.47L-89.62 -76.95L-87.77 -77.18L-88.26 -77.90L-84.98 -77.54L-86.34 -78.18L-87.96 -78.37L-85.38 -79.00L-85.09 -79.35L-86.51 -79.74L-86.93 -80.25L-83.41 -80.10L-81.85 -80.46L-87.60 -80.52L-91.37 -81.55ZM-75.22 -67.44L-76.99 -67.10L-77.24 -67.59L-76.81 -68.15L-75.90 -68.29L-75.11 -68.01L-75.10 -67.58ZM-96.26 -69.49L-95.65 -69.11L-96.27 -68.76L-99.80 -69.40L-98.22 -70.14L-96.56 -69.68ZM-64.52 -49.87L-61.84 -49.29L-62.29 -49.09L-63.59 -49.40ZM-64.01 -47.04L-63.66 -46.55L-62.01 -46.44L-62.50 -46.03L-64.14 -46.39L-64.39 -46.73Z"/>
<path d="M-122.84 -49.00L-95.16 -49.00L-95.16 -49.38L-94.82 -49.39L-94.33 -48.67L-91.64 -48.14L-89.27 -48.02L-88.38 -48.30L-84.88 -46.90L-84.60 -46.44L-84.14 -46.51L-83.47 -45.99L-83.59 -45.82L-82.55 -45.35L-82.14 -43.57L-83.12 -42.08L-82.69 -41.68L-78.94 -42.86L-79.17 -43.47L-78.72 -43.63L-76.82 -43.63L-74.87 -45.00L-71.51 -45.01L-70.66 -45.46L-69.24 -47.45L-67.79 -47.07L-67.79 -45.70L-66.96 -44.81L-70.12 -43.68L-70.81 -42.87L-70.83 -42.34L-70.50 -41.80L-70.08 -41.78L-70.19 -42.15L-69.88 -41.92L-69.97 -41.64L-73.71 -40.93L-71.94 -40.93L-73.95 -40.75L-74.26 -40.47L-73.96 -40.43L-74.18 -39.71L-74.91 -38.94L-75.53 -39.50L-75.06 -38.40L-75.94 -37.22L-75.72 -37.94L-76.23 -38.32L-76.35 -39.15L-76.54 -38.72L-76.33 -38.08L-76.99 -38.24L-76.30 -37.92L-75.73 -35.55L-76.36 -34.81L-79.06 -33.49L-81.34 -31.44L-81.31 -30.04L-80.06 -26.88L-80.13 -25.82L-80.68 -25.08L-81.17 -25.20L-82.71 -27.50L-82.65 -28.55L-82.93 -29.10L-84.10 -30.09L-85.11 -29.64L-86.40 -30.40L-89.18 -30.32L-89.59 -30.16L-89.22 -29.29L-89.41 -29.16L-90.88 -29.15L-91.63 -29.68L-93.23 -29.78L-94.69 -29.48L-97.14 -27.83L-97.38 -26.69L-97.14 -25.87L-97.53 -25.84L-99.02 -26.37L-99.52 -27.54L-100.96 -29.38L-101.66 -29.78L-102.48 -29.76L-103.11 -28.97L-103.94 -29.27L-104.46 -29.57L-105.04 -30.64L-106.51 -31.75L-108.24 -31.75L-108.24 -31.34L-111.02 -31.33L-114.81 -32.53L-114.72 -32.72L-117.13 -32.54L-117.30 -33.05L-118.52 -34.03L-120.62 -34.61L-120.74 -35.16L-121.71 -36.16L-122.51 -37.78L-123.73 -38.95L-123.87 -39.77L-124.40 -40.31L-124.21 -42.00L-124.53 -42.77L-123.90 -45.52L-124.08 -46.86L-124.69 -48.18L-124.57 -48.38L-123.12 -48.04L-122.59 -47.10L-122.34 -47.36L-122.50 -48.18ZM-155.40 -20.08L-154.81 -19.51L-155.69 -18.92L-156.07 -19.70L-155.79 -20.25ZM-156.00 -20.76L-156.41 -20.57L-156.71 -20.93L-156.26 -20.92ZM-158.03 -21.72L-157.71 -21.26L-158.29 -21.58ZM-159.37 -22.21L-159.46 -21.88L-159.80 -22.07L-159.60 -22.24ZM-166.47 -60.38L-165.67 -60.29L-165.58 -59.91L-166.19 -59.75L-167.46 -60.21ZM-153.23 -57.97L-152.14 -57.59L-154.01 -56.73L-154.52 -56.99L-154.67 -57.46L-153.76 -57.82ZM-140.99 -69.71L-141.00 -60.31L-139.04 -60.00L-137.45 -58.91L-135.48 -59.79L-133.36 -58.41L-131.71 -56.55L-130.01 -55.92L-129.98 -55.28L-130.54 -54.80L-131.97 -55.50L-132.25 -56.37L-133.54 -57.18L-134.08 -58.12L-136.63 -58.21L-139.87 -59.54L-142.57 -60.08L-143.96 -60.00L-147.11 -60.88L-148.22 -60.67L-148.02 -59.98L-151.72 -59.16L-151.86 -59.74L-151.41 -60.73L-150.35 -61.03L-150.62 -61.28L-154.02 -59.35L-153.29 -58.86L-154.23 -58.15L-156.31 -57.42L-156.56 -56.98L-158.12 -56.46L-158.43 -55.99L-163.07 -54.69L-164.94 -54.57L-161.80 -55.89L-160.56 -56.01L-158.68 -57.02L-157.72 -57.57L-157.04 -58.92L-158.52 -58.79L-159.06 -58.42L-159.71 -58.93L-159.98 -58.57L-160.36 -59.07L-161.97 -58.67L-161.87 -59.63L-162.52 -59.99L-163.82 -59.80L-165.35 -60.51L-165.35 -61.07L-166.12 -61.50L-165.73 -62.07L-164.56 -63.15L-163.07 -63.06L-162.26 -63.54L-160.77 -63.77L-160.96 -64.22L-161.52 -64.40L-160.78 -64.79L-162.76 -64.34L-164.96 -64.45L-166.43 -64.69L-168.11 -65.67L-164.47 -66.58L-163.65 -66.58L-163.79 -66.08L-161.68 -66.12L-165.39 -68.04L-166.76 -68.36L-166.20 -68.88L-164.43 -68.92L-163.17 -69.37L-162.93 -69.86L-161.91 -70.33L-158.12 -70.82L-156.58 -71.36L-155.07 -71.15L-154.34 -70.70L-152.21 -70.83L-152.27 -70.60L-150.74 -70.43L-144.92 -69.99L-143.59 -70.15L-140.99 -69.71ZM-171.73 -63.78L-168.69 -63.30L-169.53 -62.98L-171.79 -63.41Z"/>
<path d="M87.36 -49.21L86.60 -48.55L85.77 -48.46L85.72 -47.45L85.16 -47.00L83.18 -47.33L82.46 -45.54L79.97 -44.92L80.87 -43.18L80.18 -42.92L80.26 -42.35L79.14 -42.86L75.64 -42.88L74.21 -43.30L73.65 -43.09L73.49 -42.50L71.19 -42.70L70.96 -42.27L69.07 -41.38L68.63 -40.67L68.26 -40.66L67.99 -41.14L66.71 -41.17L66.51 -41.99L66.02 -41.99L66.10 -43.00L64.90 -43.73L62.01 -43.50L61.06 -44.41L58.50 -45.59L55.93 -45.00L55.97 -41.31L55.46 -41.26L54.08 -42.32L52.50 -41.78L52.50 -42.79L51.34 -43.13L50.31 -44.61L51.28 -44.51L51.32 -45.25L53.04 -45.26L53.04 -46.85L51.19 -47.05L49.10 -46.40L48.59 -46.56L48.69 -47.08L48.06 -47.74L47.32 -47.72L46.47 -48.39L47.55 -50.45L48.58 -49.87L48.70 -50.61L50.77 -51.69L52.33 -51.72L55.72 -50.62L56.78 -51.04L58.36 -51.06L59.64 -50.55L59.93 -50.84L61.34 -50.80L61.59 -51.27L59.97 -51.96L60.93 -52.45L60.74 -52.72L61.70 -52.98L60.98 -53.66L61.44 -54.01L65.18 -54.35L69.07 -55.39L70.87 -55.17L71.18 -54.13L72.22 -54.38L73.51 -54.04L73.43 -53.49L74.38 -53.55L76.89 -54.49L76.53 -54.18L77.80 -53.40L80.04 -50.86L80.57 -51.39L81.95 -50.81L83.38 -51.07L85.54 -49.69L86.83 -49.83Z"/>
<path d="M55.97 -41.31L55.93 -45.00L58.50 -45.59L61.06 -44.41L62.01 -43.50L64.90 -43.73L66.10 -43.00L66.02 -41.99L66.51 -41.99L66.71 -41.17L67.99 -41.14L68.26 -40.66L68.63 -40.67L69.07 -41.38L70.39 -42.08L71.26 -42.17L70.42 -41.52L71.16 -41.14L71.87 -41.39L73.06 -40.87L71.77 -40.15L70.60 -40.22L70.67 -40.96L69.33 -40.73L68.54 -39.53L67.70 -39.58L67.44 -39.14L68.18 -38.90L68.39 -38.16L67.83 -37.14L66.52 -37.36L66.55 -37.97L64.17 -38.89L62.37 -40.05L61.88 -41.08L60.47 -41.22L60.08 -41.43L59.98 -42.22L58.63 -42.75L56.93 -41.83L57.10 -41.32Z"/>
<path d="M141.00 2.60L144.58 3.86L145.83 4.88L145.98 5.47L147.65 6.08L147.89 6.61L146.97 6.72L147.19 7.39L148.08 8.04L148.73 9.10L149.31 9.07L149.27 9.51L150.80 10.29L150.69 10.58L150.03 10.65L147.91 10.13L146.57 8.94L146.05 8.07L144.74 7.63L143.29 8.25L143.41 8.98L142.63 9.33L141.03 9.12L141.02 5.86ZM152.64 3.66L153.14 4.50L152.83 4.77L152.41 3.79L150.66 2.74L150.94 2.50L152.24 3.24ZM151.30 5.84L149.71 6.32L148.32 5.75L148.40 5.44L149.85 5.51L150.14 5.00L150.24 5.53L150.81 5.46L151.65 4.76L151.54 4.17L152.14 4.15L152.32 4.87L151.98 5.48L151.46 5.56ZM154.76 5.34L156.02 6.54L155.60 6.92L155.17 6.54L154.73 5.90L154.65 5.04Z"/>
<path d="M141.00 2.60L141.03 9.12L140.14 8.30L139.13 8.10L138.88 8.38L137.61 8.41L138.04 7.60L138.67 7.32L137.93 5.39L135.16 4.46L133.66 3.54L132.98 4.11L132.75 3.31L131.99 2.82L133.78 2.48L133.70 2.21L132.23 2.21L131.84 1.62L130.94 1.43L130.52 0.94L132.38 0.37L133.99 0.78L134.42 2.77L135.46 3.37L136.29 2.31L137.44 1.70L138.33 1.70L139.93 2.41ZM124.97 8.89L125.09 9.39L124.44 10.14L123.46 10.24L123.98 9.29ZM134.21 6.90L134.11 6.14L134.50 5.45L134.72 6.21ZM117.88 -4.14L117.31 -3.23L118.05 -2.29L117.88 -1.83L119.00 -0.90L117.81 -0.78L117.48 -0.10L117.52 0.80L116.56 1.49L116.15 4.01L116.00 3.66L114.86 4.11L114.47 3.50L113.26 3.12L112.07 3.48L111.70 2.99L110.22 2.93L110.07 1.59L109.09 0.46L109.07 -1.34L109.66 -2.01L109.83 -1.34L110.51 -0.77L111.80 -0.90L112.86 -1.50L113.81 -1.22L114.62 -1.43L115.87 -4.31L117.02 -4.31ZM129.37 2.80L130.47 3.09L130.83 3.86L129.99 3.45L127.90 3.39L128.14 2.84ZM126.87 3.79L126.18 3.61L125.99 3.18L127.00 3.13L127.25 3.46ZM127.93 -2.17L128.00 -1.63L128.59 -1.54L128.69 -1.13L128.64 -0.26L128.12 -0.36L127.97 0.25L128.38 0.78L128.10 0.90L127.70 0.27L127.40 -1.01L127.60 -1.81ZM122.93 -0.88L124.08 -0.92L125.07 -1.64L125.24 -1.42L124.44 -0.43L120.18 -0.24L120.04 0.52L120.94 1.41L121.48 0.96L123.34 0.62L123.26 1.08L122.82 0.93L122.39 1.52L121.51 1.90L122.45 3.19L122.27 3.53L123.17 4.68L123.16 5.34L122.63 5.63L122.24 5.28L122.72 4.46L121.74 4.85L121.49 4.57L121.62 4.19L120.90 3.60L120.97 2.63L120.31 2.93L120.43 5.53L119.80 5.67L119.37 5.38L119.65 4.46L119.50 3.49L119.08 3.49L118.77 2.80L120.04 -0.57L120.89 -1.31L121.67 -1.01ZM120.30 10.26L118.97 9.56L119.90 9.36L120.78 9.97L120.72 10.24ZM121.34 8.54L122.90 8.09L122.76 8.65L121.25 8.93L119.92 8.81L119.92 8.44L120.72 8.24ZM118.26 8.36L118.88 8.28L119.13 8.71L116.74 9.03L117.08 8.46L117.63 8.45L117.90 8.10ZM108.49 6.42L108.62 6.78L110.54 6.88L110.76 6.47L112.61 6.95L112.98 7.59L114.48 7.78L115.71 8.37L114.56 8.75L113.46 8.35L108.28 7.77L106.45 7.35L106.28 6.92L105.37 6.85L106.05 5.90L107.27 5.95L108.07 6.35ZM104.37 1.08L104.89 2.34L105.62 2.43L106.11 3.06L105.82 5.85L104.71 5.87L102.58 4.22L101.40 2.80L100.14 0.65L99.26 -0.18L98.60 -1.82L95.38 -4.97L95.29 -5.48L95.94 -5.44L97.48 -5.25L100.64 -2.10L101.66 -2.08L103.84 -0.10L103.44 0.71L104.01 1.06Z"/>
<path d="M-68.63 52.64L-67.75 53.85L-65.05 54.70L-65.50 55.20L-66.45 55.25L-66.96 54.90L-68.63 54.87ZM-57.63 30.22L-58.50 34.43L-57.23 35.29L-57.36 35.98L-56.74 36.41L-56.79 36.90L-57.75 38.18L-59.23 38.72L-62.34 38.83L-62.15 40.68L-62.75 41.03L-63.77 41.17L-64.73 40.80L-65.12 41.06L-64.98 42.06L-64.30 42.36L-63.76 42.04L-63.46 42.56L-65.18 43.50L-65.57 45.04L-66.51 45.04L-67.29 45.55L-67.58 46.30L-66.60 47.03L-65.64 47.24L-65.99 48.13L-67.17 48.70L-67.82 49.87L-69.14 50.73L-68.82 51.77L-68.15 52.35L-71.91 52.01L-72.33 51.43L-72.31 50.68L-72.98 50.74L-73.33 50.38L-73.42 49.32L-72.65 48.88L-72.33 48.24L-72.45 47.74L-71.55 45.56L-71.66 44.97L-71.22 44.78L-71.79 44.21L-71.46 43.79L-71.92 43.41L-72.15 42.25L-71.75 42.05L-71.92 40.83L-71.41 38.92L-70.81 38.55L-71.12 36.66L-70.36 36.01L-70.39 35.17L-69.82 34.19L-69.81 33.27L-70.54 31.37L-69.92 30.34L-70.01 29.37L-69.66 28.46L-68.30 26.90L-68.59 26.51L-68.42 24.52L-67.33 24.03L-67.11 22.74L-66.27 21.83L-64.96 22.08L-64.38 22.80L-63.99 21.99L-62.85 22.03L-60.85 23.88L-57.78 25.16L-57.63 25.60L-58.62 27.12L-56.49 27.55L-55.70 27.39L-54.79 26.62L-54.63 25.74L-54.13 25.55L-53.63 26.12L-53.65 26.92L-56.29 28.85Z"/>
<path d="M-68.63 52.64L-68.63 54.87L-66.96 54.90L-68.15 55.61L-69.23 55.50L-72.26 54.50L-74.66 52.84L-71.11 54.07L-70.27 52.93L-69.35 52.52ZM-69.59 17.58L-68.97 18.98L-68.44 19.41L-68.76 20.37L-67.83 22.87L-67.11 22.74L-66.99 22.99L-67.33 24.03L-68.42 24.52L-68.59 26.51L-68.30 26.90L-69.66 28.46L-70.01 29.37L-69.92 30.34L-70.54 31.37L-69.81 33.27L-69.82 34.19L-70.39 35.17L-70.36 36.01L-71.12 36.66L-70.81 38.55L-71.41 38.92L-71.92 40.83L-71.75 42.05L-72.15 42.25L-71.92 43.41L-71.46 43.79L-71.79 44.21L-71.22 44.78L-71.66 44.97L-71.55 45.56L-72.45 47.74L-72.33 48.24L-72.65 48.88L-73.42 49.32L-73.33 50.38L-72.98 50.74L-72.31 50.68L-72.33 51.43L-71.91 52.01L-68.57 52.30L-69.46 52.29L-70.85 52.90L-71.01 53.83L-72.56 53.53L-74.95 52.26L-75.61 48.67L-75.18 47.71L-74.13 46.94L-75.64 46.65L-74.69 45.76L-74.35 44.10L-73.24 44.45L-72.72 42.38L-73.39 42.12L-73.70 43.37L-74.33 43.22L-73.68 39.94L-73.22 39.26L-73.59 37.16L-73.17 37.12L-71.44 32.42L-71.67 30.92L-71.37 30.10L-71.49 28.86L-70.91 27.64L-70.09 21.39L-70.37 18.35L-69.86 18.09Z"/>
<path d="M29.34 4.50L29.62 6.52L30.20 7.08L30.74 8.34L28.73 8.53L28.45 9.16L28.67 9.61L28.37 11.79L29.34 12.36L29.62 12.18L29.70 13.26L28.93 13.25L28.16 12.27L27.39 12.13L27.16 11.61L26.55 11.92L25.75 11.78L25.42 11.33L24.31 11.26L24.26 10.95L22.16 11.08L21.73 7.29L20.51 7.30L20.60 6.94L20.09 6.94L19.42 7.16L19.02 7.99L17.47 8.07L16.33 5.88L12.32 6.10L12.18 5.79L12.63 4.99L13.60 4.50L14.14 4.51L14.58 4.97L16.01 3.54L15.97 2.71L16.41 1.74L17.64 0.42L18.54 -4.20L19.47 -5.03L22.41 -4.03L22.84 -4.71L23.30 -4.61L24.41 -5.11L25.13 -4.93L25.65 -5.26L27.37 -5.23L27.98 -4.41L28.43 -4.29L29.72 -4.60L30.83 -3.51L30.77 -2.34L31.17 -2.20L29.88 -0.60L29.02 2.84L29.28 3.29Z"/>
<path d="M41.59 1.68L40.99 0.86L40.98 -2.78L42.13 -4.23L42.77 -4.25L43.66 -4.96L44.96 -5.00L47.79 -8.00L48.94 -9.45L48.95 -11.41L51.11 -12.02L51.05 -10.64L49.45 -6.80L46.56 -2.86L43.14 -0.29L41.81 1.45Z"/>
<path d="M39.20 4.68L37.77 3.68L37.70 3.10L33.90 0.95L33.89 -0.11L35.04 -1.91L34.01 -4.25L35.30 -5.51L35.82 -5.34L35.82 -4.78L36.16 -4.45L36.86 -4.45L38.12 -3.60L39.56 -3.42L40.77 -4.26L41.17 -3.92L41.86 -3.92L40.98 -2.78L40.99 0.86L41.59 1.68L40.26 2.57L39.60 4.35Z"/>
<path d="M24.57 -8.23L23.46 -8.95L23.55 -10.09L22.98 -10.71L22.29 -12.65L21.94 -12.59L22.51 -14.09L22.30 -14.33L23.02 -15.68L23.89 -15.61L23.85 -20.00L25.00 -20.00L25.00 -22.00L36.87 -22.00L37.48 -18.61L38.41 -18.00L36.85 -16.96L36.27 -13.56L34.73 -10.91L34.26 -10.63L33.97 -8.68L33.72 -10.33L33.21 -10.72L33.21 -12.18L32.74 -12.25L32.07 -11.97L32.40 -11.08L31.35 -9.81L30.84 -9.71L30.00 -10.29L28.97 -9.40L26.75 -9.47L25.79 -10.41L25.07 -10.27L24.54 -8.92L23.89 -8.62Z"/>
<path d="M23.84 -19.58L23.89 -15.61L23.02 -15.68L22.30 -14.33L22.51 -14.09L21.94 -12.59L22.29 -12.65L22.86 -11.14L21.72 -10.57L21.00 -9.48L20.06 -9.01L18.81 -8.98L18.91 -8.63L17.96 -7.89L15.28 -7.42L15.44 -7.69L14.98 -8.80L13.95 -9.55L14.17 -10.02L15.47 -9.98L14.92 -10.89L14.60 -13.33L13.95 -13.35L13.96 -14.00L13.54 -14.37L13.97 -15.68L15.25 -16.63L15.90 -20.39L15.10 -21.31L14.85 -22.86L15.86 -23.41L19.85 -21.50Z"/>
<path d="M-71.71 -19.71L-71.70 -18.79L-71.95 -18.62L-71.71 -18.04L-73.92 -18.03L-74.46 -18.34L-74.37 -18.66L-72.69 -18.45L-72.33 -18.67L-72.78 -19.48L-73.42 -19.64L-73.19 -19.92L-72.58 -19.87Z"/>
<path d="M-71.71 -18.04L-71.95 -18.62L-71.59 -19.88L-69.95 -19.65L-69.77 -19.29L-69.22 -19.31L-69.25 -19.02L-68.32 -18.61L-68.69 -18.21L-69.95 -18.43L-70.52 -18.18L-70.67 -18.43L-71.40 -17.60L-71.66 -17.76Z"/>
<path d="M178.73 -71.10L180.00 -71.52L180.00 -70.83L178.90 -70.78ZM49.10 -46.40L48.65 -45.81L47.68 -45.64L46.68 -44.61L47.59 -43.66L47.49 -42.99L48.58 -41.81L47.82 -41.15L45.78 -42.09L45.47 -42.50L43.93 -42.55L42.39 -43.22L39.96 -43.43L36.68 -45.24L37.40 -45.40L38.23 -46.24L37.67 -46.64L39.15 -47.04L39.12 -47.26L38.22 -47.10L38.26 -47.55L39.74 -47.90L39.67 -48.78L40.07 -49.60L38.01 -49.92L37.39 -50.38L36.63 -50.23L35.36 -50.58L35.02 -51.21L34.22 -51.26L34.39 -51.77L33.75 -52.34L31.79 -52.10L31.31 -53.07L32.69 -53.35L31.73 -53.79L30.76 -54.81L30.87 -55.55L29.37 -55.67L28.18 -56.17L27.77 -57.24L27.29 -57.47L27.72 -57.79L27.42 -58.72L28.13 -59.30L27.98 -59.48L29.12 -60.03L28.07 -60.50L31.14 -62.36L31.52 -62.87L30.04 -63.55L30.44 -64.20L29.54 -64.95L30.22 -65.81L29.05 -66.94L29.98 -67.70L28.45 -68.36L28.59 -69.06L32.13 -69.91L33.78 -69.30L36.51 -69.06L41.06 -67.46L41.13 -66.79L38.38 -66.00L33.92 -66.76L33.18 -66.63L34.81 -65.90L34.94 -64.41L37.01 -63.85L37.14 -64.33L36.54 -64.76L37.18 -65.14L39.59 -64.52L40.44 -64.76L39.76 -65.50L42.09 -66.48L43.95 -66.07L44.53 -66.76L43.70 -67.35L44.19 -67.95L43.45 -68.57L46.25 -68.25L46.82 -67.69L45.56 -67.57L45.56 -67.01L46.35 -66.67L47.89 -66.88L48.14 -67.52L53.72 -68.86L54.47 -68.81L53.49 -68.20L54.73 -68.10L55.44 -68.44L57.32 -68.47L58.80 -68.88L59.94 -68.28L61.08 -68.94L60.03 -69.52L60.55 -69.85L63.50 -69.55L68.51 -68.09L69.18 -68.62L68.14 -69.36L66.93 -69.45L67.26 -69.93L66.69 -71.03L68.54 -71.93L69.20 -72.84L69.94 -73.04L72.59 -72.78L72.80 -72.22L71.85 -71.41L72.47 -71.09L72.79 -70.39L72.56 -69.02L73.67 -68.41L73.24 -67.74L71.28 -66.32L72.42 -66.17L73.92 -66.79L74.19 -67.28L75.05 -67.76L74.47 -68.33L74.94 -68.99L73.84 -69.07L73.60 -69.63L74.40 -70.63L73.10 -71.45L74.89 -72.12L74.66 -72.83L75.16 -72.85L75.68 -72.30L75.29 -71.34L76.36 -71.15L75.90 -71.87L77.58 -72.27L79.65 -72.32L81.50 -71.75L80.61 -72.58L80.51 -73.65L86.82 -73.94L86.01 -74.46L87.17 -75.12L92.90 -75.77L93.23 -76.05L96.68 -75.92L98.92 -76.45L100.76 -76.43L101.99 -77.29L104.35 -77.70L106.07 -77.37L104.70 -77.13L106.97 -76.97L107.24 -76.48L111.08 -76.71L114.13 -75.85L113.89 -75.33L109.40 -74.18L112.12 -73.79L113.02 -73.98L113.53 -73.34L115.57 -73.75L118.78 -73.59L119.02 -73.12L123.20 -72.97L123.26 -73.74L126.98 -73.57L128.59 -73.04L129.05 -72.40L128.46 -71.98L129.72 -71.19L131.29 -70.79L132.25 -71.84L133.86 -71.39L135.56 -71.66L137.50 -71.35L138.23 -71.63L139.87 -71.49L139.15 -72.42L140.47 -72.85L149.50 -72.20L150.35 -71.61L152.97 -70.84L159.00 -70.87L159.83 -70.45L159.71 -69.72L160.94 -69.44L167.84 -69.58L169.58 -68.69L170.82 -69.01L170.01 -69.65L170.45 -70.10L175.72 -69.88L180.00 -68.96L180.00 -64.98L178.71 -64.53L177.41 -64.61L179.37 -62.98L179.23 -62.30L177.36 -62.52L173.68 -61.65L170.70 -60.34L170.33 -59.88L168.90 -60.57L166.29 -59.79L165.84 -60.16L164.88 -59.73L163.54 -59.87L163.22 -59.21L162.02 -58.24L162.05 -57.84L163.19 -57.62L163.06 -56.16L162.13 -56.12L161.70 -55.29L162.12 -54.86L160.37 -54.34L160.02 -53.20L158.53 -52.96L158.23 -51.94L156.79 -51.01L155.43 -55.38L155.91 -56.77L156.76 -57.36L156.81 -57.83L158.36 -58.06L161.87 -60.34L163.67 -61.14L164.47 -62.55L163.26 -62.47L162.66 -61.64L160.12 -60.54L159.30 -61.77L156.72 -61.43L154.22 -59.76L155.04 -59.14L151.27 -58.78L151.34 -59.50L149.78 -59.66L148.54 -59.16L145.49 -59.34L142.20 -59.04L135.13 -54.73L136.70 -54.60L137.19 -53.98L138.16 -53.76L138.80 -54.25L139.90 -54.19L141.35 -53.09L141.38 -52.24L140.60 -51.24L140.06 -48.45L138.22 -46.31L134.87 -43.40L133.54 -42.81L132.91 -42.80L132.28 -43.28L130.78 -42.22L130.63 -42.90L131.14 -42.93L131.29 -44.11L131.03 -44.97L131.88 -45.32L133.10 -45.14L135.03 -48.48L132.51 -47.79L130.99 -47.79L130.58 -48.73L129.40 -49.44L127.66 -49.76L125.95 -52.79L123.57 -53.46L121.00 -53.25L120.18 -52.75L120.73 -52.52L120.74 -51.96L119.28 -50.58L119.29 -50.14L117.88 -49.51L116.68 -49.89L115.49 -49.81L114.36 -50.25L112.90 -49.54L110.66 -49.13L108.48 -49.28L106.89 -50.27L103.68 -50.09L102.26 -50.51L102.07 -51.26L98.86 -52.05L97.83 -51.01L98.23 -50.42L97.26 -49.73L94.82 -50.01L94.15 -50.48L92.23 -50.80L88.81 -49.47L87.36 -49.21L86.83 -49.83L85.54 -49.69L83.38 -51.07L81.95 -50.81L80.57 -51.39L80.04 -50.86L77.80 -53.40L76.53 -54.18L76.89 -54.49L74.38 -53.55L73.43 -53.49L73.51 -54.04L72.22 -54.38L71.18 -54.13L70.87 -55.17L69.07 -55.39L65.18 -54.35L61.44 -54.01L60.98 -53.66L61.70 -52.98L60.74 -52.72L60.93 -52.45L59.97 -51.96L61.59 -51.27L61.34 -50.80L59.93 -50.84L59.64 -50.55L58.36 -51.06L56.78 -51.04L55.72 -50.62L52.33 -51.72L50.77 -51.69L48.70 -50.61L48.58 -49.87L47.55 -50.45L46.47 -48.39L47.32 -47.72L48.06 -47.74L48.69 -47.08L48.59 -46.56ZM93.78 -81.02L95.94 -81.25L97.88 -80.75L100.19 -79.78L99.94 -78.88L94.97 -79.04L93.31 -79.43L92.55 -80.14L91.18 -80.34ZM102.84 -79.28L105.37 -78.71L105.08 -78.31L99.44 -77.92L101.26 -79.23L102.09 -79.35ZM138.83 -76.14L145.09 -75.56L144.30 -74.82L138.96 -74.61L136.97 -75.26L137.51 -75.95ZM148.22 -75.35L150.73 -75.08L149.58 -74.69L147.98 -74.78L146.12 -75.17L146.36 -75.50ZM139.86 -73.37L142.06 -73.86L143.48 -73.48L143.60 -73.21L140.04 -73.32ZM44.85 -80.59L48.32 -80.78L48.52 -80.51L50.04 -80.92L51.52 -80.70L47.59 -80.01L46.50 -80.25L47.07 -80.56ZM22.73 -54.33L19.66 -54.43L19.89 -54.87L21.27 -55.19L22.76 -54.86L22.65 -54.58ZM53.51 -73.75L55.90 -74.63L55.63 -75.08L57.87 -75.61L61.17 -76.25L68.16 -76.94L68.85 -76.54L68.18 -76.23L61.58 -75.26L58.48 -74.31L55.42 -72.37L55.62 -71.54L57.54 -70.72L53.68 -70.76L53.41 -71.21L51.60 -71.47L51.46 -72.01L52.48 -72.23L52.44 -72.77L54.43 -73.63ZM142.91 -53.70L143.24 -51.76L144.65 -48.98L143.17 -49.31L142.56 -47.86L143.53 -46.84L143.51 -46.14L142.75 -46.74L142.09 -45.97L141.90 -48.86L142.18 -50.95L141.59 -51.94L141.68 -53.30L142.61 -53.76L142.21 -54.23L142.65 -54.37ZM-174.93 -67.21L-175.01 -66.58L-174.34 -66.34L-174.57 -67.06L-171.86 -66.91L-169.90 -65.98L-170.89 -65.54L-172.53 -65.44L-172.56 -64.46L-172.96 -64.25L-175.98 -64.92L-176.21 -65.36L-178.36 -65.39L-178.90 -65.74L-178.69 -66.11L-179.88 -65.87L-179.43 -65.40L-180.00 -64.98L-180.00 -68.96L-177.55 -68.20ZM-178.69 -70.89L-180.00 -70.83L-179.87 -71.56L-177.66 -71.13ZM33.44 -45.97L33.70 -46.22L35.51 -45.41L36.53 -45.47L36.33 -45.11L33.88 -44.36L33.33 -44.56L33.55 -45.03L32.45 -45.33L33.59 -45.85Z"/>
<path d="M-78.98 -26.79L-77.85 -26.84L-77.82 -26.58L-78.91 -26.42ZM-77.79 -27.04L-77.00 -26.59L-77.17 -25.88L-77.79 -26.93ZM-78.19 -25.21L-77.89 -25.17L-77.53 -23.76L-77.78 -23.71L-78.41 -24.58Z"/>
<path d="M-61.20 51.85L-60.00 51.25L-59.15 51.50L-58.55 51.10L-57.75 51.55L-58.05 51.90L-59.40 52.20L-59.85 51.85L-60.70 52.30Z"/>
<path d="M15.14 -79.67L15.52 -80.02L16.99 -80.05L21.54 -78.96L19.03 -78.56L18.47 -77.83L17.59 -77.64L17.12 -76.81L15.91 -76.77L13.76 -77.38L14.67 -77.74L11.22 -78.87L10.44 -79.65L13.17 -80.01L13.72 -79.66ZM31.10 -69.56L28.59 -69.06L29.02 -69.77L27.73 -70.16L26.18 -69.83L25.69 -69.09L24.74 -68.65L22.36 -68.84L21.24 -69.37L20.03 -69.07L19.88 -68.41L17.99 -68.57L17.73 -68.01L16.77 -68.01L13.56 -64.79L13.92 -64.45L13.57 -64.05L12.58 -64.07L11.93 -63.13L11.99 -61.80L12.63 -61.29L12.30 -60.12L11.03 -58.86L10.36 -59.47L8.38 -58.31L7.05 -58.08L5.67 -58.59L4.99 -61.97L5.91 -62.61L8.55 -63.45L10.53 -64.49L14.76 -67.81L19.18 -69.82L21.38 -70.26L23.02 -70.20L24.55 -71.03L28.17 -71.19L31.29 -70.45L30.01 -70.19ZM27.41 -80.06L25.92 -79.52L20.08 -79.57L19.90 -79.84L18.46 -79.86L17.37 -80.32L20.46 -80.60L21.91 -80.36L22.92 -80.66L25.45 -80.41ZM24.72 -77.85L22.49 -77.44L20.73 -77.68L21.42 -77.94L20.81 -78.25L22.88 -78.45L23.28 -78.08Z"/>
<path d="M-46.76 -82.63L-43.41 -83.23L-39.90 -83.18L-38.62 -83.55L-27.10 -83.52L-20.85 -82.73L-22.69 -82.34L-31.40 -82.02L-27.86 -82.13L-24.84 -81.79L-22.90 -82.09L-22.07 -81.73L-23.17 -81.15L-15.77 -81.91L-12.77 -81.72L-12.21 -81.29L-16.85 -80.35L-20.05 -80.18L-17.73 -80.13L-19.70 -78.75L-19.67 -77.64L-18.47 -76.99L-21.68 -76.63L-19.83 -76.10L-19.60 -75.25L-20.67 -75.16L-19.37 -74.30L-21.59 -74.22L-20.43 -73.82L-20.76 -73.46L-23.57 -73.31L-22.31 -72.63L-22.30 -72.18L-24.28 -72.60L-24.79 -72.33L-22.13 -71.47L-21.75 -70.66L-23.54 -70.47L-25.54 -71.43L-25.20 -70.75L-26.36 -70.23L-22.35 -70.13L-27.75 -68.47L-31.78 -68.12L-34.20 -66.68L-36.35 -65.98L-39.81 -65.46L-40.67 -64.84L-40.68 -64.14L-41.19 -63.48L-42.82 -62.68L-42.42 -61.90L-43.38 -60.10L-44.79 -60.04L-46.26 -60.85L-48.26 -60.86L-51.63 -63.63L-52.14 -64.28L-52.28 -65.18L-53.66 -66.10L-53.30 -66.84L-53.97 -67.19L-52.98 -68.36L-51.48 -68.73L-50.87 -69.93L-53.46 -69.28L-54.68 -69.61L-54.75 -70.29L-54.36 -70.82L-51.39 -70.57L-54.00 -71.55L-55.83 -71.65L-54.72 -72.59L-57.32 -74.71L-58.60 -75.10L-58.59 -75.52L-61.27 -76.10L-68.50 -76.06L-71.40 -77.01L-66.76 -77.38L-73.30 -78.04L-73.16 -78.43L-65.71 -79.39L-65.32 -79.76L-68.02 -80.12L-67.15 -80.52L-62.23 -81.32L-62.65 -81.77L-57.21 -82.19L-54.13 -82.20L-53.04 -81.89L-50.39 -82.44L-44.52 -81.66L-46.90 -82.20Z"/>
<path d="M68.94 48.63L70.56 49.26L70.28 49.71L68.75 49.77L68.87 48.83Z"/>
<path d="M124.97 8.89L125.95 8.43L127.34 8.40L125.09 9.39L125.07 9.09Z"/>
<path d="M16.34 28.58L16.82 28.08L17.39 28.78L18.46 29.05L19.89 28.46L19.90 24.77L20.76 25.87L20.89 26.83L21.61 26.73L23.31 25.27L24.21 25.67L25.66 25.49L25.94 24.70L26.49 24.62L27.12 23.57L29.43 22.09L31.19 22.25L31.93 24.37L31.84 25.84L31.04 25.73L30.69 26.74L31.28 27.29L31.87 27.18L32.07 26.73L32.83 26.74L32.46 28.30L30.06 31.14L27.46 33.23L25.91 33.67L25.78 33.94L22.57 33.86L19.62 34.82L18.38 34.14L17.93 32.61L18.25 32.43L18.22 31.66L17.06 29.88ZM28.98 28.96L28.54 28.65L28.07 28.85L27.00 29.88L27.75 30.65L28.85 30.07L29.33 29.26Z"/>
<path d="M28.98 28.96L29.33 29.26L28.85 30.07L27.75 30.65L27.00 29.88L28.54 28.65Z"/>
<path d="M-117.13 -32.54L-114.72 -32.72L-114.81 -32.53L-111.02 -31.33L-108.24 -31.34L-108.24 -31.75L-106.51 -31.75L-105.04 -30.64L-104.46 -29.57L-103.94 -29.27L-103.11 -28.97L-102.48 -29.76L-101.66 -29.78L-100.96 -29.38L-99.52 -27.54L-99.02 -26.37L-97.14 -25.87L-97.70 -24.27L-97.70 -21.90L-95.90 -18.83L-94.84 -18.56L-94.43 -18.14L-91.41 -18.88L-90.77 -19.28L-90.28 -21.00L-88.54 -21.49L-86.81 -21.33L-87.62 -19.65L-87.44 -19.47L-87.84 -18.26L-88.49 -18.49L-88.85 -17.88L-91.00 -17.82L-91.00 -17.25L-91.45 -17.25L-90.44 -16.41L-90.46 -16.07L-91.75 -16.07L-92.23 -15.25L-92.23 -14.54L-93.36 -15.62L-94.69 -16.20L-96.56 -15.65L-98.01 -16.11L-100.83 -17.17L-101.92 -17.92L-103.50 -18.29L-104.99 -19.32L-105.73 -20.43L-105.40 -20.53L-105.27 -21.42L-106.03 -22.77L-108.40 -25.17L-109.26 -25.58L-109.29 -26.44L-110.39 -27.16L-110.64 -27.86L-111.18 -27.94L-112.23 -28.95L-113.15 -31.17L-114.78 -31.80L-114.67 -30.16L-111.62 -26.66L-110.66 -24.30L-110.17 -24.27L-109.41 -23.36L-110.03 -22.82L-110.30 -23.43L-112.18 -24.74L-112.30 -26.01L-115.06 -27.72L-114.57 -27.74L-114.16 -28.57L-115.52 -29.56L-116.72 -31.64Z"/>
<path d="M-57.63 30.22L-56.98 30.11L-53.79 32.05L-53.21 32.73L-53.65 33.20L-53.37 33.77L-53.81 34.40L-54.94 34.95L-57.82 34.46L-58.43 33.91L-57.87 31.02Z"/>
<path d="M-53.37 33.77L-53.65 33.20L-53.21 32.73L-53.79 32.05L-56.98 30.11L-57.63 30.22L-55.16 27.88L-53.65 26.92L-53.63 26.12L-54.13 25.55L-54.63 25.74L-54.29 24.02L-55.40 23.96L-55.80 22.36L-57.94 22.09L-57.87 20.73L-58.17 20.18L-57.85 19.97L-57.95 19.40L-57.50 18.17L-57.73 17.55L-58.28 17.27L-58.24 16.30L-60.16 16.26L-60.54 15.09L-60.25 15.08L-60.50 13.78L-61.71 13.49L-63.20 12.63L-64.32 12.46L-65.40 11.57L-65.34 9.76L-66.65 9.93L-68.27 11.01L-70.09 11.12L-70.55 11.01L-70.48 9.49L-71.30 10.08L-72.18 10.05L-72.56 9.52L-73.23 9.46L-73.02 9.03L-73.99 7.52L-73.72 6.92L-73.12 6.63L-72.89 5.27L-70.79 4.25L-69.89 4.30L-69.42 1.12L-70.02 0.19L-70.02 -0.54L-69.25 -0.60L-69.22 -0.99L-69.80 -1.09L-69.82 -1.71L-67.87 -1.69L-67.54 -2.04L-67.07 -1.13L-66.33 -0.72L-65.55 -0.79L-63.37 -2.20L-64.27 -2.50L-64.37 -3.80L-64.82 -4.06L-63.09 -3.77L-60.97 -4.54L-60.60 -4.92L-60.73 -5.20L-59.98 -5.01L-60.11 -4.57L-59.54 -3.96L-59.97 -2.76L-59.65 -1.79L-59.03 -1.32L-58.54 -1.27L-57.34 -1.95L-56.00 -1.82L-55.97 -2.51L-52.94 -2.12L-51.66 -4.16L-51.32 -4.20L-50.51 -1.90L-49.97 -1.74L-49.95 -1.05L-50.70 -0.22L-50.39 0.08L-48.62 0.24L-48.58 1.24L-47.82 0.58L-44.91 1.55L-44.42 2.14L-44.58 2.69L-43.42 2.38L-41.47 2.91L-39.98 2.87L-37.22 4.82L-35.24 5.46L-34.73 7.34L-35.13 9.00L-38.67 13.06L-39.27 17.87L-39.76 19.60L-40.77 20.90L-40.94 21.94L-41.75 22.37L-41.99 22.97L-44.65 23.35L-47.65 24.89L-48.50 25.88L-48.47 27.18L-48.89 28.67L-49.59 29.22L-50.70 30.98L-52.26 32.25L-52.71 33.20Z"/>
<path d="M-69.53 10.95L-68.27 11.01L-66.65 9.93L-65.34 9.76L-65.40 11.57L-64.32 12.46L-63.20 12.63L-61.71 13.49L-60.50 13.78L-60.25 15.08L-60.54 15.09L-60.16 16.26L-58.24 16.30L-58.28 17.27L-57.73 17.55L-57.50 18.17L-57.95 19.40L-57.85 19.97L-58.17 20.18L-58.18 19.87L-59.12 19.36L-61.79 19.63L-62.69 22.25L-63.99 21.99L-64.38 22.80L-64.96 22.08L-66.27 21.83L-67.11 22.74L-67.83 22.87L-68.76 20.37L-68.44 19.41L-68.97 18.98L-69.59 17.58L-68.96 16.50L-69.39 15.66L-69.16 15.32L-69.34 14.95L-68.95 14.45L-68.67 12.56Z"/>
<path d="M-69.89 4.30L-70.79 4.25L-72.89 5.27L-73.12 6.63L-73.72 6.92L-73.99 7.52L-73.02 9.03L-73.23 9.46L-72.56 9.52L-72.18 10.05L-71.30 10.08L-70.48 9.49L-70.55 11.01L-69.53 10.95L-68.67 12.56L-68.95 14.45L-69.34 14.95L-69.16 15.32L-69.39 15.66L-68.96 16.50L-69.86 18.09L-70.37 18.35L-71.38 17.77L-71.46 17.36L-76.01 14.65L-76.42 13.82L-76.26 13.54L-79.76 7.19L-81.25 6.14L-80.93 5.69L-81.41 4.74L-81.10 4.04L-80.30 3.40L-80.44 4.43L-79.62 4.45L-79.21 4.96L-78.64 4.55L-77.84 3.00L-76.64 2.61L-75.54 1.56L-75.23 0.91L-75.37 0.15L-75.11 0.06L-73.66 1.26L-73.07 2.31L-70.81 2.26L-70.05 2.73L-70.69 3.74L-70.39 3.77Z"/>
<path d="M-66.88 -1.25L-67.07 -1.13L-67.54 -2.04L-67.87 -1.69L-69.82 -1.71L-69.80 -1.09L-69.22 -0.99L-69.25 -0.60L-70.02 -0.54L-70.02 0.19L-69.42 1.12L-69.89 4.30L-70.69 3.74L-70.05 2.73L-70.81 2.26L-73.07 2.31L-73.66 1.26L-75.11 0.06L-76.29 -0.42L-77.42 -0.40L-78.99 -1.69L-78.62 -1.77L-78.43 -2.63L-77.93 -2.70L-77.13 -3.85L-77.50 -4.09L-77.32 -5.85L-77.88 -7.22L-77.75 -7.71L-77.24 -7.94L-77.47 -8.52L-75.67 -9.44L-75.48 -10.62L-74.91 -11.08L-73.41 -11.23L-71.75 -12.44L-71.14 -12.11L-71.97 -11.61L-72.91 -10.45L-73.30 -9.15L-72.79 -9.09L-72.44 -8.41L-72.44 -7.42L-71.96 -6.99L-70.09 -6.96L-69.39 -6.10L-67.34 -6.10L-67.82 -4.50L-67.30 -3.32L-67.81 -2.82L-67.18 -2.25Z"/>
<path d="M-77.35 -8.67L-77.24 -7.94L-77.75 -7.71L-77.88 -7.22L-78.43 -8.05L-78.18 -8.32L-79.12 -9.00L-80.38 -8.30L-80.00 -7.55L-80.42 -7.27L-80.89 -7.22L-81.06 -7.82L-81.52 -7.71L-81.72 -8.11L-82.82 -8.29L-82.85 -8.07L-82.93 -9.48L-82.55 -9.57L-82.21 -9.00L-81.44 -8.79L-79.57 -9.61L-77.73 -8.95Z"/>
<path d="M-82.55 -9.57L-82.93 -9.48L-82.72 -8.93L-82.97 -8.23L-83.51 -8.45L-83.63 -9.05L-84.98 -10.09L-85.11 -9.56L-85.66 -9.93L-85.66 -10.75L-85.94 -10.90L-85.56 -11.22L-83.90 -10.73L-83.66 -10.94L-83.02 -9.99Z"/>
<path d="M-83.66 -10.94L-83.90 -10.73L-85.71 -11.09L-87.67 -12.91L-86.73 -13.26L-86.76 -13.75L-86.10 -14.04L-85.80 -13.84L-84.92 -14.79L-84.45 -14.62L-83.15 -15.00L-83.81 -11.10Z"/>
<path d="M-83.15 -15.00L-84.45 -14.62L-84.92 -14.79L-85.80 -13.84L-86.10 -14.04L-86.76 -13.75L-86.73 -13.26L-87.32 -12.98L-87.79 -13.38L-87.86 -13.89L-88.50 -13.85L-89.35 -14.42L-89.15 -15.07L-87.90 -15.86L-84.98 -16.00L-83.41 -15.27Z"/>
<path d="M-89.35 -14.42L-88.50 -13.85L-87.72 -13.79L-87.90 -13.15L-89.81 -13.52L-90.06 -13.88L-89.59 -14.36Z"/>
<path d="M-92.23 -14.54L-92.23 -15.25L-91.75 -16.07L-90.46 -16.07L-90.44 -16.41L-91.45 -17.25L-91.00 -17.25L-91.00 -17.82L-89.14 -17.81L-89.23 -15.89L-88.23 -15.73L-89.15 -15.07L-89.15 -14.68L-90.10 -13.74L-91.69 -14.13Z"/>
<path d="M-89.14 -17.81L-88.49 -18.49L-88.11 -18.35L-88.55 -16.27L-89.23 -15.89L-89.15 -17.02Z"/>
<path d="M-60.73 -5.20L-60.60 -4.92L-60.97 -4.54L-63.09 -3.77L-64.82 -4.06L-64.37 -3.80L-64.27 -2.50L-63.37 -2.20L-65.55 -0.79L-66.33 -0.72L-67.81 -2.82L-67.30 -3.32L-67.82 -4.50L-67.34 -6.10L-69.39 -6.10L-70.09 -6.96L-71.96 -6.99L-72.44 -7.42L-72.44 -8.41L-72.79 -9.09L-73.30 -9.15L-72.91 -10.45L-71.97 -11.61L-71.33 -11.78L-71.95 -11.42L-71.63 -10.45L-72.07 -9.87L-71.70 -9.07L-71.26 -9.14L-71.04 -9.86L-71.40 -10.97L-70.16 -11.38L-70.29 -11.85L-69.94 -12.16L-69.58 -11.46L-68.88 -11.44L-68.19 -10.55L-66.23 -10.65L-64.89 -10.08L-64.32 -10.64L-61.88 -10.72L-62.73 -10.42L-62.39 -9.95L-61.59 -9.87L-60.83 -9.38L-60.67 -8.58L-59.76 -8.37L-60.55 -7.78L-60.64 -7.42L-60.30 -7.04L-61.16 -6.70L-61.41 -5.96Z"/>
<path d="M-56.54 -1.90L-57.34 -1.95L-58.54 -1.27L-59.65 -1.79L-59.97 -2.76L-59.54 -3.96L-60.11 -4.57L-59.98 -5.01L-60.73 -5.20L-61.41 -5.96L-61.16 -6.70L-60.30 -7.04L-60.64 -7.42L-60.55 -7.78L-59.76 -8.37L-58.48 -7.35L-58.45 -6.83L-57.15 -5.97L-57.31 -5.07L-57.91 -4.81L-58.04 -4.06L-57.60 -3.33L-57.28 -3.33L-57.15 -2.77Z"/>
<path d="M-54.52 -2.31L-55.97 -2.51L-56.00 -1.82L-56.54 -1.90L-57.28 -3.33L-57.60 -3.33L-58.04 -4.06L-57.91 -4.81L-57.31 -5.07L-57.15 -5.97L-53.96 -5.76L-54.48 -4.90L-54.01 -3.62L-54.27 -2.73Z"/>
<path d="M-51.66 -4.16L-52.94 -2.12L-54.52 -2.31L-54.01 -3.62L-54.48 -4.90L-53.96 -5.76L-52.88 -5.41L-51.82 -4.57ZM6.19 -49.46L8.10 -49.02L7.47 -47.62L6.74 -47.54L6.04 -46.73L6.02 -46.27L6.50 -46.43L6.84 -45.99L7.10 -45.33L6.75 -45.03L7.01 -44.25L7.55 -44.13L7.44 -43.69L6.53 -43.13L4.56 -43.40L3.10 -43.08L2.99 -42.47L1.83 -42.34L0.70 -42.80L0.34 -42.58L-1.50 -43.03L-1.90 -43.42L-1.38 -44.02L-1.19 -46.01L-2.96 -47.57L-4.49 -47.95L-4.59 -48.68L-3.30 -48.90L-1.62 -48.64L-1.93 -49.78L-0.99 -49.35L1.34 -50.13L1.64 -50.95L2.51 -51.15L2.66 -50.80L3.12 -50.78L4.29 -49.91L4.80 -49.99L5.90 -49.44ZM8.75 -42.63L9.39 -43.01L9.56 -42.15L9.23 -41.38L8.78 -41.58L8.54 -42.26Z"/>
<path d="M-75.37 0.15L-75.23 0.91L-75.54 1.56L-76.64 2.61L-77.84 3.00L-78.64 4.55L-79.21 4.96L-79.62 4.45L-80.44 4.43L-80.30 3.40L-79.77 2.66L-79.99 2.22L-80.37 2.69L-80.97 2.25L-80.93 1.06L-80.58 0.91L-80.09 -0.77L-78.86 -1.38L-77.67 -0.83L-77.42 -0.40L-76.29 -0.42L-75.80 -0.08Z"/>
<path d="M-66.28 -18.51L-65.59 -18.23L-65.85 -17.98L-67.18 -17.95L-67.10 -18.52Z"/>
<path d="M-77.57 -18.49L-76.20 -17.89L-77.21 -17.70L-78.34 -18.23L-77.80 -18.52Z"/>
<path d="M-82.27 -23.19L-80.62 -23.11L-79.28 -22.40L-78.35 -22.51L-76.52 -21.21L-75.60 -21.02L-75.67 -20.74L-74.18 -20.28L-74.30 -20.05L-77.76 -19.86L-77.09 -20.41L-78.14 -20.74L-78.72 -21.60L-81.82 -22.19L-82.17 -22.39L-81.80 -22.64L-82.78 -22.69L-84.05 -21.91L-84.97 -21.90L-83.78 -22.79L-82.51 -23.08Z"/>
<path d="M31.19 22.25L29.43 22.09L28.02 21.49L27.72 20.50L26.16 19.29L25.26 17.74L27.04 17.94L29.52 15.64L30.27 15.51L30.34 15.88L31.17 15.86L32.33 16.39L32.85 16.71L32.85 17.98L32.66 20.30L32.24 21.12Z"/>
<path d="M29.43 22.09L27.12 23.57L26.49 24.62L25.94 24.70L25.66 25.49L24.21 25.67L23.31 25.27L21.61 26.73L20.89 26.83L20.76 25.87L19.90 24.77L19.90 21.85L20.88 21.81L20.91 18.25L23.20 17.87L23.58 18.28L25.26 17.74L26.16 19.29L27.72 20.50L28.02 21.49L28.79 21.64Z"/>
<path d="M19.90 24.77L19.89 28.46L18.46 29.05L17.39 28.78L16.82 28.08L16.34 28.58L15.21 27.09L14.26 22.11L11.79 18.07L11.73 17.30L13.46 16.97L14.06 17.42L18.26 17.31L18.96 17.79L21.38 17.93L24.68 17.35L25.08 17.66L23.58 18.28L23.20 17.87L20.91 18.25L20.88 21.81L19.90 21.85Z"/>
<path d="M-16.71 -13.59L-17.63 -14.73L-17.19 -14.92L-16.12 -16.46L-15.14 -16.59L-13.44 -16.04L-12.17 -14.62L-11.51 -12.44L-15.55 -12.63L-16.68 -12.38L-16.84 -13.15L-13.84 -13.51L-14.05 -13.79L-14.69 -13.63L-15.08 -13.88L-15.62 -13.62Z"/>
<path d="M-11.51 -12.44L-12.17 -14.62L-11.67 -15.39L-10.65 -15.13L-9.55 -15.49L-5.54 -15.50L-5.32 -16.20L-6.45 -24.96L-4.92 -24.97L1.82 -20.61L2.06 -20.14L3.15 -19.69L3.16 -19.06L4.27 -19.16L4.27 -16.85L3.64 -15.57L1.39 -15.32L1.02 -14.97L-1.07 -14.97L-3.10 -13.54L-4.01 -13.47L-5.22 -11.71L-5.40 -10.37L-6.05 -10.10L-6.21 -10.52L-6.85 -10.14L-8.03 -10.21L-8.28 -10.79L-8.62 -10.81L-8.38 -11.39L-9.13 -12.31L-10.17 -11.84L-11.04 -12.21L-11.46 -12.08Z"/>
<path d="M-17.06 -21.00L-16.85 -21.33L-12.93 -21.33L-13.12 -22.77L-12.87 -23.28L-11.94 -23.37L-11.97 -25.93L-8.69 -25.88L-8.68 -27.40L-4.92 -24.97L-6.45 -24.96L-5.32 -16.20L-5.54 -15.50L-9.55 -15.49L-10.65 -15.13L-11.67 -15.39L-12.17 -14.62L-13.44 -16.04L-14.58 -16.60L-16.12 -16.46L-16.46 -16.14L-16.15 -18.11L-16.54 -20.57Z"/>
<path d="M2.69 -6.26L1.87 -6.14L1.66 -9.13L0.77 -10.47L0.90 -11.00L2.49 -12.23L3.61 -11.66L3.71 -10.06L2.91 -9.14L2.75 -7.87Z"/>
<path d="M14.85 -22.86L15.10 -21.31L15.90 -20.39L15.25 -16.63L13.97 -15.68L13.54 -14.37L13.96 -14.00L13.95 -13.35L14.60 -13.33L14.18 -12.48L13.08 -13.60L12.30 -13.04L10.99 -13.39L9.01 -12.83L7.80 -13.34L6.82 -13.12L5.44 -13.87L4.11 -13.53L3.61 -11.66L2.85 -12.24L2.15 -11.94L2.18 -12.63L1.02 -12.85L0.30 -14.44L0.37 -14.93L1.39 -15.32L3.64 -15.57L4.27 -16.85L4.27 -19.16L5.68 -19.60L12.00 -23.47L13.58 -23.04L14.14 -22.49Z"/>
<path d="M2.69 -6.26L2.72 -8.51L3.71 -10.06L3.68 -12.55L4.37 -13.75L5.44 -13.87L6.82 -13.12L7.80 -13.34L9.01 -12.83L10.99 -13.39L12.30 -13.04L13.32 -13.56L14.58 -12.09L13.57 -10.80L11.75 -6.98L11.06 -6.64L10.12 -7.04L9.23 -6.44L8.50 -4.77L5.90 -4.26L4.33 -6.27L3.57 -6.26Z"/>
<path d="M14.50 -12.86L14.89 -12.22L14.92 -10.89L15.47 -9.98L14.17 -10.02L13.95 -9.55L14.98 -8.80L15.44 -7.69L14.54 -6.23L14.48 -4.73L15.86 -3.01L15.94 -1.73L14.34 -2.23L9.65 -2.28L9.80 -3.07L8.49 -4.50L9.23 -6.44L10.12 -7.04L11.06 -6.64L11.75 -6.98L13.57 -10.80L14.42 -11.57L14.58 -12.09L14.21 -12.80Z"/>
<path d="M0.90 -11.00L0.77 -10.47L1.66 -9.13L1.87 -6.14L1.06 -5.93L0.57 -6.91L0.71 -8.31L0.02 -11.02Z"/>
<path d="M0.02 -11.02L0.71 -8.31L0.57 -6.91L1.06 -5.93L-1.96 -4.71L-2.86 -4.99L-3.24 -6.25L-2.56 -8.22L-2.94 -10.96L-0.44 -11.10Z"/>
<path d="M-8.03 -10.21L-6.85 -10.14L-6.21 -10.52L-6.05 -10.10L-5.40 -10.37L-4.33 -9.61L-3.51 -9.90L-2.83 -9.64L-2.56 -8.22L-3.24 -6.25L-2.86 -4.99L-4.65 -5.17L-7.71 -4.36L-7.57 -5.71L-8.60 -6.47L-8.30 -8.32L-7.83 -8.58L-8.23 -10.13Z"/>
<path d="M-13.70 -12.59L-11.51 -12.44L-11.46 -12.08L-11.04 -12.21L-10.17 -11.84L-9.13 -12.31L-8.38 -11.39L-8.62 -10.81L-8.28 -10.79L-8.03 -10.21L-8.31 -9.79L-7.83 -8.58L-8.30 -8.32L-8.28 -7.69L-9.21 -7.31L-9.76 -8.54L-10.51 -8.35L-10.62 -9.27L-11.12 -10.05L-12.43 -9.84L-13.25 -8.90L-15.13 -11.04L-14.69 -11.53L-13.74 -11.81L-13.72 -12.25Z"/>
<path d="M-16.68 -12.38L-13.70 -12.59L-13.74 -11.81L-14.69 -11.53L-15.13 -11.04L-16.61 -12.17Z"/>
<path d="M-8.44 -7.69L-8.60 -6.47L-7.57 -5.71L-7.71 -4.36L-7.97 -4.36L-9.00 -4.83L-11.44 -6.79L-10.23 -8.41L-9.76 -8.54L-9.21 -7.31L-8.72 -7.71Z"/>
<path d="M-13.25 -8.90L-12.43 -9.84L-11.12 -10.05L-10.62 -9.27L-10.51 -8.35L-10.23 -8.41L-11.44 -6.79L-12.43 -7.26L-13.12 -8.16Z"/>
<path d="M-5.40 -10.37L-5.22 -11.71L-4.01 -13.47L-3.10 -13.54L-1.07 -14.97L0.37 -14.93L0.43 -13.99L1.02 -12.85L2.18 -12.63L1.94 -11.64L0.90 -11.00L-2.94 -10.96L-2.83 -9.64L-3.51 -9.90L-4.33 -9.61L-4.95 -10.15Z"/>
<path d="M27.37 -5.23L25.65 -5.26L24.81 -4.90L24.41 -5.11L23.30 -4.61L22.84 -4.71L22.41 -4.03L19.47 -5.03L18.54 -4.20L18.45 -3.50L17.13 -3.73L16.01 -2.27L15.86 -3.01L14.48 -4.73L14.54 -6.23L15.28 -7.42L17.96 -7.89L18.91 -8.63L18.81 -8.98L20.06 -9.01L21.00 -9.48L21.72 -10.57L22.86 -11.14L23.55 -10.09L23.46 -8.95L25.11 -7.83L26.47 -5.95L27.21 -5.55Z"/>
<path d="M18.45 -3.50L17.64 0.42L16.41 1.74L15.97 2.71L16.01 3.54L14.58 4.97L14.14 4.51L13.60 4.50L13.26 4.88L12.62 4.44L11.91 5.04L11.09 3.98L11.86 3.43L11.48 2.77L12.50 2.39L12.58 1.95L13.11 2.43L13.99 2.47L14.43 1.33L14.32 0.55L13.84 -0.04L14.28 -1.20L13.28 -1.31L13.08 -2.27L15.94 -1.73L16.54 -3.20L17.13 -3.73L17.81 -3.56Z"/>
<path d="M11.28 -2.26L12.95 -2.32L13.28 -1.31L14.28 -1.20L13.84 -0.04L14.32 0.55L14.43 1.33L13.99 2.47L13.11 2.43L12.58 1.95L12.50 2.39L11.48 2.77L11.86 3.43L11.09 3.98L8.80 1.11L9.49 -1.01L11.29 -1.06Z"/>
<path d="M9.65 -2.28L11.28 -2.26L11.29 -1.06L9.31 -1.16Z"/>
<path d="M30.74 8.34L33.23 9.68L33.49 10.53L33.11 11.61L33.31 12.44L32.69 13.71L33.21 13.97L30.18 14.80L30.27 15.51L28.95 16.04L27.04 17.94L25.26 17.74L24.68 17.35L23.22 17.52L21.89 16.08L21.93 12.90L24.02 12.91L23.91 10.93L24.26 10.95L24.31 11.26L25.42 11.33L25.75 11.78L26.55 11.92L27.16 11.61L27.39 12.13L28.16 12.27L28.93 13.25L29.70 13.26L29.62 12.18L29.34 12.36L28.37 11.79L28.67 9.61L28.45 9.16L28.73 8.53L30.35 8.24Z"/>
<path d="M32.76 9.23L33.74 9.42L34.28 10.16L34.56 13.58L35.27 13.89L35.69 14.61L35.77 15.90L35.34 16.11L35.03 16.80L34.38 16.18L34.46 14.61L32.69 13.71L33.31 12.44L33.11 11.61L33.49 10.53L33.23 9.68Z"/>
<path d="M34.56 11.52L37.47 11.57L39.52 10.90L40.32 10.32L40.78 14.69L39.45 16.72L37.41 17.59L34.79 19.78L34.70 20.50L35.56 22.09L35.46 24.12L33.01 25.36L32.57 25.73L32.92 26.22L32.83 26.74L32.07 26.73L31.75 25.48L31.93 24.37L31.19 22.25L32.66 20.30L32.85 16.71L31.17 15.86L30.34 15.88L30.18 14.80L33.21 13.97L34.46 14.61L34.38 16.18L35.03 16.80L35.34 16.11L35.77 15.90L35.69 14.61L35.27 13.89L34.56 13.58L34.28 12.28Z"/>
<path d="M32.07 26.73L31.87 27.18L31.28 27.29L30.69 26.74L31.04 25.73L31.84 25.84L31.99 26.29Z"/>
<path d="M13.00 4.78L12.18 5.79L11.91 5.04L12.62 4.44ZM12.32 6.10L16.33 5.88L17.47 8.07L19.02 7.99L19.42 7.16L20.09 6.94L20.60 6.94L20.51 7.30L21.73 7.29L22.16 11.08L23.46 10.87L23.91 10.93L24.02 11.24L24.02 12.91L21.93 12.90L21.89 16.08L23.22 17.52L21.38 17.93L18.96 17.79L18.26 17.31L14.06 17.42L13.46 16.97L11.73 17.30L12.18 14.45L13.63 12.04L13.74 11.30L12.88 9.17L13.24 8.56L12.73 6.93L12.23 6.29Z"/>
<path d="M30.47 2.41L30.75 3.36L29.75 4.45L29.34 4.50L29.02 2.84L29.63 2.92L29.94 2.35Z"/>
<path d="M35.72 -32.71L35.55 -32.39L35.18 -32.53L34.97 -31.87L35.23 -31.75L34.93 -31.35L35.40 -31.49L35.42 -31.10L34.92 -29.50L34.27 -31.22L35.10 -33.08L35.82 -33.28L35.70 -32.72Z"/>
<path d="M35.82 -33.28L35.13 -33.09L35.48 -33.91L36.00 -34.64L36.45 -34.59L36.61 -34.20L36.07 -33.82Z"/>
<path d="M49.54 12.47L50.48 15.23L50.20 16.00L49.86 15.41L49.67 15.71L49.77 16.88L47.10 24.94L45.41 25.60L44.04 24.99L43.25 22.06L44.37 20.07L43.96 17.41L44.45 16.22L46.31 15.78L47.71 14.59L48.01 14.09L47.87 13.66L48.29 13.78L49.19 12.04Z"/>
<path d="M35.40 -31.49L34.93 -31.35L35.23 -31.75L34.97 -31.87L35.18 -32.53L35.55 -32.39L35.55 -31.78Z"/>
<path d="M-16.71 -13.59L-15.08 -13.88L-14.69 -13.63L-14.05 -13.79L-13.84 -13.51L-16.84 -13.15Z"/>
<path d="M9.48 -30.31L9.06 -32.10L7.61 -33.34L7.52 -34.10L8.14 -34.66L8.38 -35.48L8.42 -36.95L9.51 -37.35L10.21 -37.23L10.18 -36.72L11.03 -37.09L11.10 -36.90L10.60 -36.41L10.59 -35.95L10.94 -35.70L10.81 -34.83L10.15 -34.33L10.34 -33.79L10.86 -33.77L11.49 -33.14L11.43 -32.37L9.95 -31.38L9.97 -30.54Z"/>
<path d="M-8.68 -27.40L-8.67 -28.84L-5.24 -30.00L-4.86 -30.50L-3.69 -30.90L-3.65 -31.64L-1.31 -32.26L-1.12 -32.65L-2.17 -35.17L-1.21 -35.71L1.47 -36.61L5.32 -36.72L6.26 -37.11L8.42 -36.95L8.14 -34.66L7.52 -34.10L7.61 -33.34L9.06 -32.10L9.81 -29.42L9.72 -26.51L9.32 -26.09L10.30 -24.38L10.77 -24.56L12.00 -23.47L5.68 -19.60L3.16 -19.06L3.15 -19.69L2.06 -20.14L1.82 -20.61L-4.92 -24.97Z"/>
<path d="M35.55 -32.39L35.72 -32.71L36.83 -32.31L38.79 -33.38L39.20 -32.16L37.00 -31.51L38.00 -30.51L36.07 -29.20L34.92 -29.50L35.55 -31.78Z"/>
<path d="M51.58 -24.25L51.79 -24.02L54.01 -24.12L56.07 -26.06L56.40 -24.92L55.89 -24.92L55.98 -24.13L55.53 -23.93L55.01 -22.50L52.00 -23.00L51.62 -24.01Z"/>
<path d="M50.81 -24.75L50.74 -25.48L51.29 -26.11L51.61 -25.22L51.11 -24.56Z"/>
<path d="M47.97 -29.98L48.42 -28.55L47.71 -28.53L47.46 -29.00L46.57 -29.10L47.30 -30.06Z"/>
<path d="M39.20 -32.16L38.79 -33.38L41.01 -34.42L41.29 -36.36L42.78 -37.39L44.29 -37.00L44.77 -37.17L45.42 -35.98L46.08 -35.68L46.15 -35.09L45.65 -34.75L45.42 -33.97L46.11 -33.02L47.33 -32.47L47.85 -31.71L47.69 -30.98L48.00 -30.99L48.01 -30.45L48.57 -29.93L47.30 -30.06L46.57 -29.10L44.71 -29.18L41.89 -31.19L40.40 -31.89Z"/>
<path d="M55.21 -22.71L55.53 -23.93L55.98 -24.13L55.89 -24.92L56.40 -24.92L57.40 -23.88L58.73 -23.57L59.81 -22.31L58.49 -20.43L57.83 -20.24L57.69 -18.94L56.61 -18.57L56.28 -17.88L55.66 -17.88L54.79 -16.95L53.11 -16.65L52.00 -19.00L55.00 -20.00L55.67 -22.00ZM56.26 -25.71L56.07 -26.06L56.36 -26.40L56.39 -25.90Z"/>
<path d="M167.22 15.89L167.84 16.47L167.52 16.60L167.18 16.16ZM166.79 15.67L166.63 14.63L167.11 14.93L167.27 15.74L167.00 15.61Z"/>
<path d="M102.58 -12.19L102.35 -13.39L102.99 -14.23L104.28 -14.42L106.04 -13.88L106.50 -14.57L107.38 -14.20L107.49 -12.34L105.81 -11.57L106.25 -10.96L104.33 -10.49L103.50 -10.63L103.09 -11.15Z"/>
<path d="M105.22 -14.27L102.99 -14.23L102.35 -13.39L102.58 -12.19L101.69 -12.65L100.83 -12.63L100.98 -13.41L100.10 -13.41L100.02 -12.31L99.15 -9.96L99.22 -9.24L99.87 -9.21L100.46 -7.43L102.14 -6.22L101.81 -5.81L101.15 -5.69L101.08 -6.20L100.26 -6.64L100.09 -6.46L98.50 -8.38L98.34 -7.79L98.26 -8.97L99.59 -11.89L99.10 -13.83L98.19 -15.12L98.90 -16.18L97.38 -18.45L97.80 -18.63L98.25 -19.71L98.96 -19.75L100.12 -20.42L100.55 -20.11L100.61 -19.51L101.28 -19.46L101.06 -17.51L102.11 -18.11L103.00 -17.96L103.20 -18.31L103.96 -18.24L104.72 -17.43L104.78 -16.44L105.59 -15.57L105.54 -14.72Z"/>
<path d="M107.38 -14.20L106.50 -14.57L106.04 -13.88L105.22 -14.27L105.59 -15.57L104.78 -16.44L104.72 -17.43L103.96 -18.24L103.20 -18.31L103.00 -17.96L102.11 -18.11L101.06 -17.51L101.28 -19.46L100.61 -19.51L100.55 -20.11L100.12 -20.42L101.18 -21.44L101.80 -21.17L101.65 -22.32L102.17 -22.46L103.20 -20.77L104.44 -20.76L104.82 -19.89L103.90 -19.27L105.09 -18.67L107.31 -15.91L107.56 -15.20Z"/>
<path d="M100.12 -20.42L98.96 -19.75L98.25 -19.71L97.80 -18.63L97.38 -18.45L98.90 -16.18L98.19 -15.12L99.10 -13.83L99.59 -11.89L98.55 -9.93L98.76 -11.44L98.43 -12.03L98.51 -13.12L98.10 -13.64L97.16 -16.93L95.37 -15.71L94.19 -16.04L94.53 -17.28L94.32 -18.21L93.54 -19.37L93.66 -19.73L93.08 -19.86L92.37 -20.67L92.30 -21.48L92.65 -21.32L92.67 -22.04L93.17 -22.28L93.33 -24.08L94.11 -23.85L95.16 -26.00L95.12 -26.57L96.42 -27.26L97.13 -27.08L97.33 -28.26L97.91 -28.34L98.68 -27.51L98.67 -25.92L97.72 -25.08L97.60 -23.90L98.66 -24.06L98.90 -23.14L99.53 -22.95L99.24 -22.12L100.42 -21.56L101.15 -21.85L101.18 -21.44L100.33 -20.79Z"/>
<path d="M104.33 -10.49L106.25 -10.96L105.81 -11.57L107.49 -12.34L107.56 -15.20L107.31 -15.91L105.09 -18.67L103.90 -19.27L104.82 -19.89L104.44 -20.76L103.20 -20.77L102.17 -22.46L104.48 -22.82L105.33 -23.35L106.73 -22.79L106.57 -22.22L108.05 -21.55L106.72 -20.70L105.66 -19.06L107.36 -16.70L108.88 -15.28L109.34 -13.43L109.20 -11.67L105.16 -8.60L104.80 -9.24L105.08 -9.92Z"/>
<path d="M130.64 -42.40L130.78 -42.22L130.40 -42.28L129.67 -41.60L129.71 -40.88L127.53 -39.76L127.39 -39.21L128.35 -38.61L128.21 -38.37L125.28 -37.67L124.71 -38.11L125.39 -39.39L124.27 -39.93L126.87 -41.82L128.21 -41.47L128.05 -41.99L129.60 -42.42L129.99 -42.99Z"/>
<path d="M126.17 -37.75L128.35 -38.61L129.46 -36.78L129.47 -35.63L129.09 -35.08L126.49 -34.39L126.56 -35.68L126.12 -36.73L126.86 -36.89Z"/>
<path d="M87.75 -49.30L92.23 -50.80L94.15 -50.48L94.82 -50.01L97.26 -49.73L98.23 -50.42L97.83 -51.01L98.86 -52.05L102.07 -51.26L102.26 -50.51L103.68 -50.09L106.89 -50.27L108.48 -49.28L110.66 -49.13L112.90 -49.54L114.36 -50.25L115.49 -49.81L116.68 -49.89L115.49 -48.14L115.74 -47.73L117.30 -47.70L118.06 -48.07L119.77 -47.05L119.66 -46.69L117.42 -46.67L115.99 -45.73L113.46 -44.81L111.87 -45.10L111.35 -44.46L111.83 -43.74L110.41 -42.87L106.13 -42.13L104.96 -41.60L100.85 -42.66L96.35 -42.73L95.31 -44.24L93.48 -44.98L90.95 -45.29L90.59 -45.72L90.97 -46.89L90.28 -47.69L88.01 -48.60Z"/>
<path d="M97.33 -28.26L97.13 -27.08L96.42 -27.26L95.12 -26.57L95.16 -26.00L94.11 -23.85L93.33 -24.08L93.17 -22.28L92.67 -22.04L92.15 -23.63L91.87 -23.62L91.71 -22.99L91.16 -23.50L92.38 -24.98L89.92 -25.27L89.83 -25.97L88.56 -26.45L88.21 -25.77L88.93 -25.24L88.08 -24.50L88.70 -24.23L88.53 -23.63L89.03 -22.06L88.89 -21.69L86.98 -21.50L87.03 -20.74L86.50 -20.15L85.06 -19.48L82.19 -17.02L82.19 -16.56L80.32 -15.90L80.03 -15.14L80.29 -13.01L79.86 -12.06L79.86 -10.36L79.34 -10.31L78.89 -9.55L79.19 -9.22L78.28 -8.93L77.54 -7.97L76.59 -8.90L75.75 -11.31L74.86 -12.74L74.44 -14.62L73.53 -15.99L72.63 -21.36L71.18 -20.76L70.47 -20.88L69.16 -22.09L69.64 -22.45L69.35 -22.84L68.18 -23.69L68.84 -24.36L71.04 -24.36L70.17 -26.49L69.51 -26.94L70.62 -27.99L71.78 -27.91L74.42 -30.98L74.41 -31.69L75.26 -32.27L74.45 -32.76L73.75 -34.32L74.24 -34.75L76.87 -34.65L77.84 -35.49L78.91 -34.32L78.81 -33.51L79.21 -32.99L79.18 -32.48L78.46 -32.62L78.74 -31.52L81.11 -30.18L80.48 -29.73L80.09 -28.79L83.30 -27.36L84.68 -27.23L85.25 -26.73L88.06 -26.41L88.12 -27.88L88.73 -28.09L88.84 -27.10L89.74 -26.72L92.03 -26.84L92.10 -27.45L91.70 -27.77L92.50 -27.90L94.57 -29.28L95.40 -29.03L96.12 -29.45L96.59 -28.83L96.25 -28.41Z"/>
<path d="M92.67 -22.04L92.65 -21.32L92.30 -21.48L92.37 -20.67L91.42 -22.77L90.50 -22.81L90.27 -21.84L89.03 -22.06L88.53 -23.63L88.70 -24.23L88.08 -24.50L88.93 -25.24L88.21 -25.77L88.56 -26.45L89.83 -25.97L89.92 -25.27L92.38 -24.98L91.16 -23.50L91.71 -22.99L91.87 -23.62L92.15 -23.63Z"/>
<path d="M91.70 -27.77L92.10 -27.45L92.03 -26.84L89.74 -26.72L88.84 -27.10L89.48 -28.04L90.02 -28.30L91.26 -28.04Z"/>
<path d="M88.12 -27.88L88.06 -26.41L85.25 -26.73L84.68 -27.23L83.30 -27.36L80.09 -28.79L80.48 -29.73L81.53 -30.42L83.90 -29.32L84.23 -28.84L86.95 -27.97Z"/>
<path d="M77.84 -35.49L76.87 -34.65L74.24 -34.75L73.75 -34.32L74.45 -32.76L75.26 -32.27L74.41 -31.69L74.42 -30.98L71.78 -27.91L70.62 -27.99L69.51 -26.94L70.17 -26.49L71.04 -24.36L68.84 -24.36L68.18 -23.69L67.44 -23.94L66.37 -25.43L61.50 -25.08L61.87 -26.24L63.32 -26.76L63.23 -27.22L62.76 -27.38L62.73 -28.26L61.77 -28.70L60.87 -29.83L62.55 -29.32L65.05 -29.47L66.35 -29.89L66.38 -30.74L66.94 -31.30L69.32 -31.90L69.26 -32.50L69.69 -33.11L70.32 -33.36L69.93 -34.02L70.88 -33.99L71.61 -35.15L71.26 -36.07L71.85 -36.51L75.16 -37.13L75.90 -36.67L76.19 -35.90Z"/>
<path d="M66.52 -37.36L68.14 -37.02L68.86 -37.34L69.20 -37.15L69.52 -37.61L70.12 -37.59L70.81 -38.49L71.35 -38.26L71.45 -37.07L71.84 -36.74L73.26 -37.50L74.98 -37.42L75.16 -37.13L71.85 -36.51L71.26 -36.07L71.61 -35.15L70.88 -33.99L69.93 -34.02L70.32 -33.36L69.69 -33.11L69.26 -32.50L69.32 -31.90L66.94 -31.30L66.38 -30.74L66.35 -29.89L65.05 -29.47L62.55 -29.32L60.87 -29.83L61.78 -30.74L61.70 -31.38L60.94 -31.55L60.54 -32.98L60.96 -33.53L60.53 -33.68L61.21 -35.65L62.23 -35.27L62.98 -35.40L63.19 -35.86L64.55 -36.31L64.75 -37.11L65.59 -37.31L65.75 -37.66L66.22 -37.39Z"/>
<path d="M67.83 -37.14L68.39 -38.16L68.18 -38.90L67.44 -39.14L67.70 -39.58L68.54 -39.53L69.33 -40.73L70.67 -40.96L70.46 -40.50L71.01 -40.24L70.65 -39.94L69.56 -40.10L69.46 -39.53L73.68 -39.43L73.93 -38.51L74.86 -38.38L74.98 -37.42L73.26 -37.50L71.84 -36.74L71.45 -37.07L71.35 -38.26L70.81 -38.49L70.12 -37.59L68.14 -37.02Z"/>
<path d="M70.96 -42.27L71.19 -42.70L71.84 -42.85L73.49 -42.50L73.65 -43.09L74.21 -43.30L75.64 -42.88L79.14 -42.86L80.26 -42.35L80.12 -42.12L78.54 -41.58L78.19 -41.19L76.90 -41.07L76.53 -40.43L74.78 -40.37L73.82 -39.89L73.96 -39.66L73.68 -39.43L69.46 -39.53L69.56 -40.10L71.77 -40.15L73.06 -40.87L71.87 -41.39L71.16 -41.14L70.42 -41.52L71.26 -42.17Z"/>
<path d="M52.50 -41.78L54.08 -42.32L55.46 -41.26L57.10 -41.32L56.93 -41.83L58.63 -42.75L59.98 -42.22L60.08 -41.43L60.47 -41.22L61.88 -41.08L62.37 -40.05L64.17 -38.89L66.55 -37.97L66.52 -37.36L65.75 -37.66L65.59 -37.31L64.75 -37.11L64.55 -36.31L62.23 -35.27L61.21 -35.65L61.12 -36.49L60.38 -36.53L59.23 -37.41L57.33 -38.03L55.51 -37.96L54.80 -37.39L53.92 -37.20L53.88 -38.95L53.10 -39.29L53.36 -39.98L52.69 -40.03L52.92 -40.88L53.86 -40.63L54.74 -40.95L53.72 -42.12L52.92 -41.87L52.81 -41.14Z"/>
<path d="M48.57 -29.93L48.01 -30.45L48.00 -30.99L47.69 -30.98L47.85 -31.71L47.33 -32.47L46.11 -33.02L45.42 -33.97L45.65 -34.75L46.15 -35.09L46.08 -35.68L45.42 -35.98L44.23 -37.97L44.42 -38.28L44.11 -39.43L44.79 -39.71L45.46 -38.87L46.14 -38.74L48.06 -39.58L48.36 -39.29L48.01 -38.79L48.88 -38.32L49.20 -37.58L50.84 -36.87L52.26 -36.70L53.83 -36.97L55.51 -37.96L57.33 -38.03L59.23 -37.41L60.38 -36.53L61.12 -36.49L61.21 -35.65L60.53 -33.68L60.96 -33.53L60.54 -32.98L60.94 -31.55L61.70 -31.38L61.78 -30.74L60.87 -29.83L61.77 -28.70L62.73 -28.26L62.76 -27.38L63.23 -27.22L63.32 -26.76L61.87 -26.24L61.50 -25.08L57.40 -25.74L56.97 -26.97L56.49 -27.14L54.72 -26.48L51.52 -27.87L50.12 -30.15L49.58 -29.99L48.94 -30.32Z"/>
<path d="M35.72 -32.71L36.07 -33.82L36.61 -34.20L36.45 -34.59L36.00 -34.64L35.91 -35.41L36.69 -36.26L36.74 -36.82L39.52 -36.72L42.35 -37.23L41.29 -36.36L41.01 -34.42L36.83 -32.31Z"/>
<path d="M46.51 -38.77L46.14 -38.74L45.74 -39.47L43.66 -40.25L43.58 -41.09L44.97 -41.25L45.89 -40.22L45.61 -39.90L46.48 -39.46Z"/>
<path d="M11.03 -58.86L12.30 -60.12L12.63 -61.29L11.99 -61.80L11.93 -63.13L12.58 -64.07L13.57 -64.05L13.92 -64.45L13.56 -64.79L16.77 -68.01L17.73 -68.01L17.99 -68.57L19.88 -68.41L20.03 -69.07L20.65 -69.11L23.54 -67.94L23.57 -66.40L23.90 -66.01L22.18 -65.72L21.21 -65.03L21.37 -64.41L17.85 -62.75L17.12 -61.34L18.79 -60.08L17.87 -58.95L16.83 -58.72L16.45 -57.04L15.88 -56.10L14.67 -56.20L14.10 -55.41L12.94 -55.36L11.79 -57.44Z"/>
<path d="M28.18 -56.17L29.37 -55.67L30.87 -55.55L30.76 -54.81L31.73 -53.79L32.69 -53.35L31.31 -53.07L31.79 -52.10L30.93 -52.04L30.56 -51.32L25.33 -51.91L23.53 -51.58L23.20 -52.49L23.80 -52.69L23.48 -53.91L25.54 -54.28L25.77 -54.85L26.59 -55.17L26.49 -55.62L27.10 -55.78Z"/>
<path d="M31.79 -52.10L33.75 -52.34L34.39 -51.77L34.22 -51.26L35.02 -51.21L35.36 -50.58L36.63 -50.23L37.39 -50.38L38.01 -49.92L40.07 -49.60L39.67 -48.78L39.90 -48.23L39.74 -47.90L38.26 -47.55L38.22 -47.10L34.96 -46.27L35.01 -45.74L33.70 -46.22L33.44 -45.97L31.74 -46.33L31.68 -46.71L30.75 -46.58L29.60 -45.29L28.23 -45.49L28.86 -46.44L30.02 -46.42L28.67 -48.12L27.52 -48.47L24.87 -47.74L23.14 -48.10L22.71 -47.88L22.09 -48.42L22.78 -49.03L22.52 -49.48L23.92 -50.42L23.53 -51.58L25.33 -51.91L30.56 -51.32L30.93 -52.04Z"/>
<path d="M23.48 -53.91L23.80 -52.69L23.20 -52.49L24.03 -50.71L22.52 -49.48L22.78 -49.03L21.61 -49.47L19.83 -49.22L19.32 -49.57L18.91 -49.44L18.39 -49.99L17.65 -50.05L17.55 -50.36L16.87 -50.47L16.72 -50.22L16.18 -50.42L16.24 -50.70L15.02 -51.11L14.07 -52.98L14.35 -53.25L14.12 -53.76L14.80 -54.05L17.62 -54.85L18.62 -54.68L18.70 -54.44L23.24 -54.22Z"/>
<path d="M16.98 -48.12L16.90 -47.71L16.34 -47.71L16.53 -47.50L16.01 -46.68L14.63 -46.43L12.38 -46.77L12.15 -47.12L11.05 -46.75L9.48 -47.10L9.90 -47.58L10.40 -47.30L10.54 -47.57L12.14 -47.70L12.93 -47.47L12.88 -48.29L13.60 -48.88L14.34 -48.56L15.25 -49.04L16.88 -48.47Z"/>
<path d="M22.09 -48.42L22.71 -47.88L22.10 -47.67L21.02 -46.32L18.46 -45.76L16.20 -46.85L16.53 -47.50L16.34 -47.71L16.90 -47.71L16.98 -48.12L17.86 -47.76L20.80 -48.62L21.87 -48.32Z"/>
<path d="M26.62 -48.22L27.52 -48.47L28.67 -48.12L29.91 -46.67L30.02 -46.42L29.76 -46.35L28.86 -46.44L28.23 -45.49L28.13 -46.81L26.92 -48.12Z"/>
<path d="M28.23 -45.49L29.60 -45.29L29.63 -45.04L28.84 -44.91L28.56 -43.71L27.24 -44.18L25.57 -43.69L22.94 -43.82L22.47 -44.41L22.71 -44.58L21.56 -44.77L21.48 -45.18L20.22 -46.13L21.02 -46.32L22.10 -47.67L23.14 -48.10L24.87 -47.74L26.62 -48.22L28.13 -46.81L28.05 -45.94Z"/>
<path d="M26.49 -55.62L26.59 -55.17L25.77 -54.85L25.54 -54.28L23.48 -53.91L22.73 -54.33L22.76 -54.86L21.27 -55.19L21.06 -56.03L22.20 -56.34L24.86 -56.37L25.53 -56.10Z"/>
<path d="M27.29 -57.47L27.77 -57.24L28.18 -56.17L26.49 -55.62L24.86 -56.37L22.20 -56.34L21.06 -56.03L21.09 -56.78L21.58 -57.41L22.52 -57.75L23.32 -57.01L24.12 -57.03L24.31 -57.79L25.16 -57.97L26.46 -57.48Z"/>
<path d="M27.98 -59.48L28.13 -59.30L27.42 -58.72L27.72 -57.79L27.29 -57.47L25.16 -57.97L24.31 -57.79L24.43 -58.38L24.06 -58.26L23.43 -58.61L23.34 -59.19L24.60 -59.47L27.98 -59.48Z"/>
<path d="M14.12 -53.76L14.35 -53.25L14.07 -52.98L15.02 -51.11L14.31 -51.12L12.24 -50.27L12.52 -49.55L13.60 -48.88L12.88 -48.29L12.93 -47.47L12.14 -47.70L10.54 -47.57L10.40 -47.30L8.52 -47.83L7.47 -47.62L8.10 -49.02L6.66 -49.20L6.19 -49.46L6.04 -50.13L5.99 -51.85L6.59 -51.85L6.84 -52.23L7.10 -53.69L8.12 -53.53L8.80 -54.02L8.53 -54.96L9.92 -54.98L9.94 -54.60L10.95 -54.36L10.94 -54.01L12.52 -54.47L13.65 -54.08Z"/>
<path d="M22.66 -44.23L22.94 -43.82L25.57 -43.69L27.24 -44.18L28.56 -43.71L27.67 -42.58L28.00 -42.01L27.14 -42.14L26.12 -41.83L26.11 -41.33L25.20 -41.23L24.49 -41.58L22.95 -41.34L22.88 -42.00L22.38 -42.32L22.99 -43.21L22.41 -44.01Z"/>
<path d="M26.29 -35.30L26.16 -35.00L24.72 -34.92L23.51 -35.28L23.70 -35.71L25.75 -35.18ZM22.95 -41.34L24.49 -41.58L25.20 -41.23L26.11 -41.33L26.12 -41.83L26.60 -41.56L26.06 -40.82L23.71 -40.69L24.41 -40.12L23.34 -39.96L22.81 -40.48L22.63 -40.26L23.35 -39.19L22.97 -38.97L24.03 -38.22L24.04 -37.66L23.12 -37.92L23.41 -37.41L22.77 -37.31L23.15 -36.42L21.67 -36.84L21.12 -38.31L20.15 -39.62L21.02 -40.84L22.76 -41.30Z"/>
<path d="M44.77 -37.17L44.29 -37.00L42.78 -37.39L39.52 -36.72L36.74 -36.82L36.69 -36.26L36.15 -35.82L35.78 -36.27L36.16 -36.65L34.71 -36.80L34.03 -36.22L32.51 -36.11L31.70 -36.64L30.62 -36.68L30.39 -36.26L29.70 -36.14L28.73 -36.68L27.64 -36.66L26.32 -38.21L26.80 -38.99L26.17 -39.46L27.28 -40.42L28.82 -40.46L29.24 -41.22L31.15 -41.09L33.51 -42.02L35.17 -42.04L38.35 -40.95L40.37 -41.01L41.55 -41.54L42.62 -41.58L43.58 -41.09L43.66 -40.25L44.79 -39.71L44.11 -39.43L44.42 -38.28L44.23 -37.97L44.77 -37.17ZM26.12 -41.83L27.14 -42.14L28.00 -42.01L28.12 -41.62L28.99 -41.30L28.81 -41.05L27.62 -41.00L26.36 -40.15L26.06 -40.82L26.60 -41.56Z"/>
<path d="M21.02 -40.84L19.98 -39.69L19.41 -40.25L19.54 -41.72L19.30 -42.20L19.74 -42.69L20.52 -42.22L20.61 -41.09Z"/>
<path d="M16.56 -46.50L17.63 -45.95L18.83 -45.91L19.39 -45.24L19.01 -44.86L15.96 -45.23L15.75 -44.82L17.67 -43.03L18.56 -42.65L18.45 -42.48L16.02 -43.51L15.17 -44.24L15.38 -44.32L14.90 -45.08L14.26 -45.23L13.95 -44.80L13.66 -45.14L13.72 -45.50L15.33 -45.45L15.77 -46.24Z"/>
<path d="M9.59 -47.53L9.48 -47.10L10.44 -46.89L10.36 -46.48L9.18 -46.44L8.97 -46.04L8.32 -46.16L7.27 -45.78L6.50 -46.43L6.02 -46.27L6.04 -46.73L6.74 -47.54L8.52 -47.83Z"/>
<path d="M6.04 -50.13L6.19 -49.46L5.67 -49.53L5.78 -50.09Z"/>
<path d="M6.16 -50.80L5.67 -49.53L4.80 -49.99L4.29 -49.91L3.12 -50.78L2.66 -50.80L2.51 -51.15L4.97 -51.48L5.61 -51.04Z"/>
<path d="M6.91 -53.48L7.09 -53.14L6.84 -52.23L6.59 -51.85L5.99 -51.85L6.16 -50.80L4.97 -51.48L3.31 -51.35L3.83 -51.62L4.71 -53.09L6.07 -53.51Z"/>
<path d="M-9.03 -41.88L-8.26 -42.28L-8.01 -41.79L-6.67 -41.88L-6.39 -41.38L-6.85 -41.11L-7.07 -39.71L-7.50 -39.63L-7.10 -39.03L-7.37 -38.37L-7.03 -38.08L-7.54 -37.43L-7.45 -37.10L-8.90 -36.87L-8.84 -38.27L-9.53 -38.74L-8.77 -40.76L-8.99 -41.54Z"/>
<path d="M-7.45 -37.10L-7.54 -37.43L-7.03 -38.08L-7.37 -38.37L-7.10 -39.03L-7.50 -39.63L-7.07 -39.71L-6.85 -41.11L-6.39 -41.38L-6.67 -41.88L-8.01 -41.79L-8.26 -42.28L-9.03 -41.88L-8.98 -42.59L-9.39 -43.03L-7.98 -43.75L-1.90 -43.42L-1.50 -43.03L0.34 -42.58L0.70 -42.80L1.83 -42.34L2.99 -42.47L3.04 -41.89L2.09 -41.23L0.81 -41.01L-0.28 -39.31L0.11 -38.74L-0.47 -38.29L-0.68 -37.64L-1.44 -37.44L-2.15 -36.67L-4.37 -36.68L-5.38 -35.95L-5.87 -36.03L-6.52 -36.94Z"/>
<path d="M-6.20 -53.87L-6.03 -53.15L-6.79 -52.26L-8.56 -51.67L-9.98 -51.82L-9.17 -52.86L-9.69 -53.88L-7.57 -55.13L-7.37 -54.60L-7.57 -54.06L-6.95 -54.07Z"/>
<path d="M165.78 21.08L167.12 22.16L166.74 22.40L164.83 21.15L164.03 20.11L165.46 20.80Z"/>
<path d="M162.12 10.48L162.40 10.83L161.70 10.82L161.32 10.20L161.92 10.45ZM161.68 9.60L161.53 9.78L160.79 8.92L160.58 8.32L160.92 8.32L161.28 9.12ZM160.85 9.87L159.64 9.64L159.70 9.24L160.69 9.61ZM159.64 8.02L159.92 8.54L159.13 8.11L158.21 7.42L158.82 7.56ZM157.14 7.02L157.54 7.35L156.90 7.18L156.54 6.60Z"/>
<path d="M176.89 40.07L176.01 41.29L175.24 41.69L174.65 41.28L175.23 40.46L174.90 39.91L173.82 39.51L173.85 39.15L174.57 38.80L174.70 37.38L172.64 34.53L173.01 34.45L174.33 35.27L175.34 37.21L175.36 36.53L175.81 36.80L175.96 37.56L177.44 37.96L178.01 37.58L178.52 37.70L177.97 39.17L177.21 39.15L177.03 39.88ZM169.67 43.56L171.13 42.51L172.10 40.96L172.80 40.49L173.25 41.33L173.96 40.93L174.25 41.77L172.71 43.37L173.08 43.85L171.45 44.24L170.62 45.91L169.33 46.64L166.68 46.22L166.51 45.85L167.05 45.11L168.95 43.94Z"/>
<path d="M147.69 40.81L148.29 40.88L148.36 42.06L147.91 43.21L147.56 42.94L146.87 43.63L146.05 43.55L144.72 41.16L144.74 40.70L146.36 41.14L146.91 41.00ZM126.15 32.22L124.22 32.96L123.66 33.89L119.89 33.98L118.02 35.06L116.63 35.03L115.03 34.20L115.05 33.62L115.71 33.26L115.69 31.61L115.16 30.60L115.04 29.46L113.34 26.12L113.78 26.55L113.44 25.62L114.23 26.30L113.39 24.38L114.15 21.76L114.23 22.52L114.65 21.83L116.71 20.70L117.44 20.75L119.25 19.95L120.86 19.68L122.24 18.20L122.31 17.25L123.01 16.41L123.43 17.27L123.86 17.07L123.50 16.60L123.82 16.11L124.26 16.33L124.38 15.57L125.69 14.23L126.13 14.35L126.14 14.10L127.07 13.82L128.36 14.87L129.62 14.97L129.41 14.42L130.34 13.36L130.18 13.11L130.62 12.54L131.22 12.18L132.58 12.11L132.56 11.60L131.82 11.27L132.36 11.13L135.30 12.25L136.49 11.86L136.95 12.35L136.31 13.29L135.96 13.32L136.08 13.72L135.50 15.00L140.22 17.71L140.88 17.37L141.27 16.39L141.70 15.04L141.69 12.41L142.52 10.67L143.52 12.83L143.92 14.55L144.56 14.17L145.37 14.98L145.49 16.29L146.39 18.96L148.85 20.39L148.72 20.63L149.68 22.34L150.08 22.12L150.48 22.56L150.73 22.40L150.90 23.46L152.86 25.27L153.14 26.07L153.09 27.26L153.57 28.11L152.89 31.64L152.45 32.55L151.71 33.04L150.33 35.67L150.00 37.43L149.42 37.77L148.30 37.81L146.32 39.04L144.88 38.42L145.03 37.90L143.61 38.81L140.64 38.02L139.99 37.40L139.57 36.14L139.08 35.73L138.12 35.61L138.45 35.13L138.21 34.38L137.72 35.08L136.83 35.26L137.89 33.64L137.81 32.90L136.37 34.09L135.99 34.89L135.21 34.48L135.24 33.95L134.09 32.85L134.27 32.62L131.33 31.50L129.54 31.59L127.10 32.28Z"/>
<path d="M81.79 -7.52L81.64 -6.48L81.22 -6.20L80.35 -5.97L79.87 -6.76L79.70 -8.20L80.15 -9.82L81.30 -8.56Z"/>
<path d="M109.48 -18.20L108.66 -18.51L108.63 -19.37L109.12 -19.82L110.79 -20.08L111.01 -19.70L110.34 -18.68ZM80.26 -42.35L80.18 -42.92L80.87 -43.18L79.97 -44.92L82.46 -45.54L83.18 -47.33L85.16 -47.00L85.72 -47.45L85.77 -48.46L86.60 -48.55L87.75 -49.30L88.01 -48.60L90.28 -47.69L90.97 -46.89L90.59 -45.72L90.95 -45.29L93.48 -44.98L95.31 -44.24L96.35 -42.73L100.85 -42.66L104.96 -41.60L106.13 -42.13L109.24 -42.52L111.83 -43.74L111.35 -44.46L111.87 -45.10L113.46 -44.81L115.99 -45.73L117.42 -46.67L119.66 -46.69L119.77 -47.05L118.06 -48.07L117.30 -47.70L115.74 -47.73L115.49 -48.14L116.68 -49.89L117.88 -49.51L119.29 -50.14L119.28 -50.58L120.74 -51.96L120.73 -52.52L120.18 -52.75L121.00 -53.25L122.25 -53.43L123.57 -53.46L125.95 -52.79L127.66 -49.76L129.40 -49.44L130.58 -48.73L130.99 -47.79L132.51 -47.79L135.03 -48.48L134.11 -47.21L133.77 -46.12L133.10 -45.14L131.88 -45.32L131.03 -44.97L131.29 -44.11L131.14 -42.93L130.63 -42.90L130.64 -42.40L129.99 -42.99L129.60 -42.42L128.05 -41.99L128.21 -41.47L126.87 -41.82L124.27 -39.93L121.05 -38.90L121.59 -39.36L121.38 -39.75L122.17 -40.42L121.64 -40.95L119.64 -39.90L119.02 -39.25L118.04 -39.20L117.53 -38.74L118.06 -38.06L118.88 -37.90L118.91 -37.45L119.70 -37.16L120.82 -37.87L122.36 -37.45L122.52 -36.93L121.10 -36.65L119.15 -34.91L120.23 -34.36L121.91 -31.69L121.89 -30.95L121.26 -30.68L121.50 -30.14L122.09 -29.83L121.68 -28.23L121.13 -28.14L118.66 -24.55L115.89 -22.78L114.76 -22.67L114.15 -22.22L113.81 -22.55L113.24 -22.05L110.79 -21.40L110.44 -20.34L109.89 -20.28L109.63 -21.01L109.86 -21.40L107.04 -21.81L106.57 -22.22L106.73 -22.79L105.33 -23.35L104.48 -22.82L102.71 -22.71L101.65 -22.32L101.80 -21.17L101.27 -21.20L101.15 -21.85L100.42 -21.56L99.24 -22.12L99.53 -22.95L98.90 -23.14L98.66 -24.06L97.60 -23.90L97.72 -25.08L98.67 -25.92L98.68 -27.51L97.91 -28.34L96.25 -28.41L96.59 -28.83L96.12 -29.45L95.40 -29.03L94.57 -29.28L92.50 -27.90L91.70 -27.77L90.02 -28.30L88.81 -27.30L88.73 -28.09L88.12 -27.88L85.82 -28.20L84.23 -28.84L83.90 -29.32L82.33 -30.12L81.53 -30.42L81.11 -30.18L78.74 -31.52L78.46 -32.62L79.18 -32.48L79.21 -32.99L78.81 -33.51L78.91 -34.32L77.84 -35.49L76.19 -35.90L75.90 -36.67L74.98 -37.42L74.86 -38.38L73.93 -38.51L73.68 -39.43L73.96 -39.66L73.82 -39.89L74.78 -40.37L76.53 -40.43L76.90 -41.07L78.19 -41.19L78.54 -41.58L80.12 -42.12Z"/>
<path d="M121.78 -24.39L120.75 -21.97L120.11 -23.56L121.50 -25.30L121.95 -25.00Z"/>
<path d="M10.44 -46.89L11.05 -46.75L12.15 -47.12L12.38 -46.77L13.81 -46.51L13.94 -45.59L13.14 -45.74L12.33 -45.38L12.26 -44.60L12.59 -44.09L13.53 -43.59L14.03 -42.76L15.14 -41.96L15.93 -41.96L16.17 -41.74L15.89 -41.54L18.48 -40.17L18.29 -39.81L17.74 -40.28L16.87 -40.44L16.45 -39.80L17.17 -39.42L17.05 -38.90L15.68 -37.91L16.11 -38.96L15.41 -40.05L11.19 -42.36L10.51 -42.93L10.20 -43.92L8.89 -44.37L7.44 -43.69L7.55 -44.13L7.01 -44.25L6.75 -45.03L7.10 -45.33L6.84 -45.99L7.76 -45.82L8.32 -46.16L8.97 -46.04L9.18 -46.44L10.36 -46.48ZM14.76 -38.14L15.52 -38.23L15.10 -36.62L12.43 -37.61L12.57 -38.13L13.74 -38.03ZM8.71 -40.90L9.21 -41.21L9.81 -40.50L9.67 -39.18L8.81 -38.91L8.43 -39.17L8.16 -40.95Z"/>
<path d="M9.92 -54.98L8.53 -54.96L8.12 -55.52L8.09 -56.54L8.54 -57.11L10.58 -57.73L10.25 -56.89L10.91 -56.46L9.65 -55.47ZM12.37 -56.11L12.69 -55.61L12.09 -54.80L11.04 -55.36L10.90 -55.78Z"/>
<path d="M-6.20 -53.87L-7.57 -54.06L-7.37 -54.60L-7.57 -55.13L-6.73 -55.17L-5.66 -54.55ZM-3.09 -53.40L-2.95 -53.98L-3.63 -54.62L-5.08 -55.06L-4.72 -55.51L-5.05 -55.78L-5.59 -55.31L-5.64 -56.28L-6.15 -56.79L-5.79 -57.82L-5.01 -58.63L-3.01 -58.63L-4.07 -57.55L-1.96 -57.68L-2.22 -56.87L-3.12 -55.97L-2.09 -55.91L-1.11 -54.62L-0.43 -54.46L0.47 -52.93L1.68 -52.74L1.56 -52.10L1.05 -51.81L1.45 -51.29L0.55 -50.77L-2.49 -50.50L-2.96 -50.70L-3.62 -50.23L-4.54 -50.34L-5.25 -49.96L-5.78 -50.16L-4.31 -51.21L-3.41 -51.43L-4.98 -51.59L-5.27 -51.99L-4.22 -52.30L-4.77 -52.84L-4.58 -53.50Z"/>
<path d="M-14.51 -66.46L-14.74 -65.81L-13.61 -65.13L-14.91 -64.36L-18.66 -63.50L-22.76 -63.96L-21.78 -64.40L-23.96 -64.89L-22.18 -65.08L-22.23 -65.38L-24.33 -65.61L-23.65 -66.26L-22.13 -66.41L-20.58 -65.73L-19.06 -66.28L-17.80 -65.99L-16.17 -66.53Z"/>
<path d="M46.40 -41.86L47.82 -41.15L48.58 -41.81L49.62 -40.57L50.39 -40.26L49.57 -40.18L48.88 -38.32L48.01 -38.79L48.36 -39.29L48.06 -39.58L46.51 -38.77L46.48 -39.46L45.61 -39.90L45.89 -40.22L44.97 -41.25L46.50 -41.06L46.15 -41.72ZM46.14 -38.74L44.95 -39.34L44.79 -39.71L45.00 -39.74L45.74 -39.32Z"/>
<path d="M39.96 -43.43L42.39 -43.22L43.93 -42.55L45.47 -42.50L46.40 -41.86L46.15 -41.72L46.50 -41.06L45.22 -41.41L43.58 -41.09L42.62 -41.58L41.55 -41.54L41.45 -42.65L40.32 -43.13Z"/>
<path d="M120.83 -12.70L120.32 -13.47L121.18 -13.43L121.53 -13.07L121.26 -12.21ZM122.59 -9.98L122.95 -10.88L123.50 -10.94L123.34 -10.27L124.08 -11.23L123.98 -10.28L123.31 -9.32L123.00 -9.02L122.38 -9.71ZM126.38 -8.41L126.54 -7.19L126.20 -6.27L125.83 -7.29L125.36 -6.79L125.68 -6.05L125.40 -5.58L124.22 -6.16L123.94 -6.89L124.24 -7.36L123.61 -7.83L122.09 -6.90L121.92 -7.19L122.31 -8.03L123.49 -8.69L123.84 -8.24L124.60 -8.51L124.76 -8.96L125.47 -8.99L125.41 -9.76L126.22 -9.29L126.31 -8.78ZM118.50 -9.32L117.17 -8.37L117.66 -9.07L118.99 -10.38L119.51 -11.37L119.69 -10.55L119.03 -10.00ZM122.34 -18.22L122.17 -17.81L122.52 -17.09L122.25 -16.26L121.66 -15.93L121.73 -14.33L122.70 -14.34L123.95 -13.78L124.08 -12.54L122.93 -13.55L122.67 -13.19L122.03 -13.78L120.63 -13.86L120.99 -14.53L120.69 -14.76L120.56 -14.40L120.07 -14.97L119.88 -16.36L120.29 -16.03L120.72 -18.51L121.94 -18.22L122.25 -18.48ZM122.04 -11.42L121.88 -11.89L123.12 -11.58L123.10 -11.17L122.00 -10.44L121.97 -10.91ZM125.50 -12.16L125.78 -11.05L125.01 -11.31L125.28 -10.36L124.80 -10.13L124.76 -10.84L124.46 -10.89L124.30 -11.50L124.89 -11.42L124.88 -11.79L124.27 -12.56L125.23 -12.54Z"/>
<path d="M100.09 -6.46L100.26 -6.64L101.08 -6.20L101.15 -5.69L102.37 -6.13L103.38 -4.86L103.50 -2.79L104.25 -1.63L104.23 -1.29L103.52 -1.23L101.39 -2.76L100.20 -5.31L100.31 -6.04ZM117.88 -4.14L115.87 -4.31L114.62 -1.43L113.81 -1.22L112.86 -1.50L111.80 -0.90L110.51 -0.77L109.83 -1.34L109.66 -2.01L110.40 -1.66L111.17 -1.85L111.37 -2.70L113.00 -3.10L114.20 -4.53L114.66 -4.01L114.87 -4.35L115.35 -4.32L115.45 -5.45L116.73 -6.92L117.13 -6.93L117.69 -5.99L119.18 -5.41L119.11 -5.02L118.44 -4.97L118.62 -4.48Z"/>
<path d="M115.45 -5.45L115.35 -4.32L114.87 -4.35L114.66 -4.01L114.20 -4.53L114.60 -4.90Z"/>
<path d="M13.81 -46.51L16.20 -46.85L16.56 -46.50L15.77 -46.24L15.33 -45.45L13.72 -45.50L13.94 -45.59L13.70 -46.02Z"/>
<path d="M28.59 -69.06L28.45 -68.36L29.98 -67.70L29.05 -66.94L30.22 -65.81L29.54 -64.95L30.44 -64.20L30.04 -63.55L31.52 -62.87L31.14 -62.36L28.07 -60.50L22.87 -59.85L21.32 -60.72L21.54 -61.71L21.06 -62.61L22.44 -63.82L25.40 -65.11L25.29 -65.53L23.57 -66.40L23.54 -67.94L20.65 -69.11L21.24 -69.37L22.36 -68.84L24.74 -68.65L25.69 -69.09L26.18 -69.83L27.73 -70.16L29.02 -69.77Z"/>
<path d="M22.56 -49.09L21.87 -48.32L20.80 -48.62L18.70 -47.88L17.49 -47.87L16.98 -48.12L17.10 -48.82L17.89 -48.90L18.55 -49.50L19.32 -49.57L19.83 -49.22L21.61 -49.47Z"/>
<path d="M15.02 -51.11L16.24 -50.70L16.18 -50.42L16.72 -50.22L16.87 -50.47L17.55 -50.36L17.65 -50.05L18.39 -49.99L18.85 -49.50L16.96 -48.60L15.25 -49.04L14.34 -48.56L12.52 -49.55L12.24 -50.27L14.57 -51.00Z"/>
<path d="M36.43 -14.42L36.85 -16.96L38.41 -18.00L39.27 -15.92L43.08 -12.70L42.35 -12.54L40.90 -14.12L40.03 -14.52L39.10 -14.74L38.51 -14.51L37.91 -14.96L37.59 -14.21Z"/>
<path d="M141.88 -39.18L140.96 -38.17L140.98 -37.14L140.60 -36.34L140.77 -35.84L140.25 -35.14L138.98 -34.67L137.22 -34.61L135.79 -33.46L135.12 -33.85L135.08 -34.60L130.99 -33.89L132.00 -33.15L131.33 -31.45L130.69 -31.03L130.20 -31.42L130.45 -32.32L129.81 -32.61L129.41 -33.30L130.35 -33.60L132.62 -35.43L134.61 -35.73L135.68 -35.53L136.72 -37.30L137.39 -36.83L139.43 -38.22L140.05 -39.44L139.88 -40.56L140.31 -41.20L141.37 -41.38L141.91 -39.99ZM144.61 -43.96L145.32 -44.38L145.54 -43.26L144.06 -42.99L143.18 -42.00L141.61 -42.68L141.07 -41.58L139.96 -41.57L139.82 -42.56L140.31 -43.33L141.38 -43.39L141.97 -45.55L143.91 -44.17ZM132.37 -33.46L132.92 -34.06L133.49 -33.94L133.90 -34.36L134.64 -34.15L134.77 -33.81L134.20 -33.20L133.79 -33.52L133.28 -33.29L133.01 -32.70L132.36 -32.99Z"/>
<path d="M-58.17 20.18L-57.87 20.73L-57.94 22.09L-55.80 22.36L-55.40 23.96L-54.29 24.02L-54.79 26.62L-55.70 27.39L-56.49 27.55L-58.62 27.12L-57.63 25.60L-57.78 25.16L-60.85 23.88L-62.69 22.25L-61.79 19.63L-59.12 19.36L-58.18 19.87Z"/>
<path d="M52.00 -19.00L53.11 -16.65L52.39 -16.38L52.17 -15.60L49.57 -14.71L48.68 -14.00L45.63 -13.29L44.99 -12.70L44.18 -12.59L43.48 -12.64L42.60 -15.21L43.38 -17.58L43.79 -17.32L46.75 -17.28L47.00 -16.95L47.47 -17.12L48.18 -18.17L49.12 -18.62Z"/>
<path d="M34.96 -29.36L36.07 -29.20L38.00 -30.51L37.00 -31.51L39.20 -32.16L40.40 -31.89L41.89 -31.19L44.71 -29.18L47.46 -29.00L47.71 -28.53L48.42 -28.55L48.81 -27.69L50.15 -26.69L50.24 -25.61L50.81 -24.75L51.39 -24.63L52.00 -23.00L55.01 -22.50L55.21 -22.71L55.67 -22.00L55.00 -20.00L52.00 -19.00L49.12 -18.62L48.18 -18.17L47.47 -17.12L47.00 -16.95L46.75 -17.28L43.79 -17.32L43.38 -17.58L43.22 -16.67L42.78 -16.35L40.94 -19.49L39.80 -20.34L39.14 -21.29L39.07 -22.58L38.49 -23.69L37.48 -24.29L36.93 -25.60L35.13 -28.06L34.63 -28.06L34.83 -28.96Z"/>
<path d="M-48.66 78.05L-46.66 77.83L-43.92 78.48L-43.33 80.03L-50.48 81.03L-54.16 80.63L-53.99 80.22L-50.99 79.61L-48.66 78.05ZM-66.29 80.26L-61.88 80.39L-60.61 79.63L-59.57 80.04L-60.16 81.00L-64.49 80.92L-65.74 80.55ZM-73.92 71.27L-72.07 71.19L-71.74 69.51L-71.17 69.04L-70.25 68.88L-68.45 70.96L-68.33 71.41L-68.78 72.17L-71.08 72.50L-72.39 72.48L-71.90 72.09L-74.19 72.37L-74.95 72.07L-75.01 71.66ZM-102.33 71.89L-96.79 71.95L-96.20 72.52L-101.80 72.31ZM-122.62 73.66L-122.41 73.32L-119.92 73.66L-118.72 73.48L-120.23 74.09L-121.62 74.01ZM-127.28 73.46L-126.56 73.25L-124.03 73.87L-125.91 73.74ZM-163.71 78.60L-163.11 78.22L-160.25 78.69L-159.21 79.50L-161.13 79.63L-163.07 78.87ZM180.00 84.71L180.00 90.00L-180.00 90.00L-180.00 84.71L-179.06 84.14L-177.26 84.45L-175.83 84.12L-174.38 84.53L-172.89 84.06L-169.95 83.88L-167.02 84.57L-158.07 85.37L-155.19 85.10L-148.53 85.61L-143.11 85.04L-142.89 84.57L-150.06 84.30L-150.90 83.90L-153.59 83.69L-152.67 82.45L-152.86 82.04L-156.84 81.10L-152.10 81.00L-150.65 81.34L-146.42 80.34L-146.77 79.93L-149.53 79.36L-155.33 79.06L-158.05 78.03L-158.37 76.89L-156.97 77.30L-153.74 77.07L-152.92 77.50L-151.33 77.40L-146.10 76.48L-146.50 75.73L-146.20 75.38L-144.91 75.20L-144.32 75.54L-135.21 74.30L-119.70 74.48L-117.47 74.03L-116.22 74.24L-113.94 73.71L-112.30 74.71L-111.26 74.42L-107.56 75.18L-104.88 74.95L-100.65 75.30L-100.12 74.87L-101.25 74.19L-102.55 74.11L-103.11 73.73L-103.68 72.62L-99.14 72.91L-97.69 73.56L-96.34 73.62L-92.44 73.17L-90.09 73.32L-89.23 72.56L-88.42 73.01L-86.01 73.09L-85.19 73.48L-81.47 73.85L-80.30 73.13L-76.22 73.97L-74.89 73.87L-68.94 73.01L-67.37 72.48L-67.25 71.64L-68.54 69.72L-67.43 68.15L-67.74 67.33L-63.63 64.90L-57.81 63.27L-57.22 63.53L-57.60 63.86L-62.02 64.80L-62.65 65.48L-62.12 66.19L-63.75 66.50L-65.51 67.58L-65.67 67.95L-64.78 68.68L-63.20 69.23L-61.81 70.72L-60.69 73.17L-60.83 73.70L-61.96 74.44L-63.30 74.58L-64.35 75.26L-69.80 76.22L-70.60 76.63L-77.24 76.71L-76.93 77.10L-73.66 77.91L-77.93 78.38L-78.02 79.18L-75.36 80.26L-59.69 82.38L-58.22 83.22L-49.76 81.73L-42.81 82.08L-40.77 81.36L-28.55 80.34L-29.69 79.63L-29.69 79.26L-35.64 79.46L-35.91 79.08L-35.78 78.34L-35.33 78.12L-32.21 77.65L-28.88 76.67L-22.46 76.11L-17.52 75.13L-15.70 74.50L-15.41 74.11L-16.47 73.87L-15.45 73.15L-12.29 72.40L-10.30 71.27L-7.42 71.70L-6.87 70.93L-4.34 71.46L-0.66 71.23L-0.23 71.64L6.27 70.46L7.74 69.89L8.49 70.15L9.53 70.01L10.82 70.83L13.42 69.97L14.73 70.03L15.13 70.40L15.95 70.03L19.26 69.89L21.45 70.07L22.57 70.70L27.09 70.46L31.99 69.66L33.87 68.50L36.16 69.25L37.20 69.17L38.65 69.78L41.96 68.60L46.50 67.60L47.44 67.72L48.99 67.09L50.75 66.88L50.95 66.52L51.79 66.25L54.53 65.82L56.36 65.97L58.74 67.29L61.43 67.95L62.39 68.01L64.05 67.41L68.89 67.93L69.67 69.23L69.56 69.68L67.81 70.31L67.95 70.70L69.07 70.68L67.95 71.85L69.87 72.26L71.02 72.09L73.86 69.87L77.64 69.46L79.11 68.33L82.78 67.21L86.75 67.15L87.48 66.88L87.99 66.21L88.83 66.95L89.67 67.15L94.18 67.11L95.78 67.39L99.72 67.25L102.83 65.56L106.18 66.93L110.24 66.70L113.60 65.88L115.60 66.70L119.83 67.27L123.22 66.48L128.80 66.76L134.76 66.21L135.07 65.31L135.70 65.58L136.62 66.78L137.46 66.95L145.49 66.92L146.20 67.23L146.00 67.60L146.65 67.90L148.84 68.39L152.50 68.87L153.64 68.89L154.28 68.56L156.81 69.38L159.18 69.60L161.57 70.58L167.31 70.83L171.21 71.70L169.29 73.66L166.09 74.38L164.23 75.46L163.57 76.24L163.49 77.07L164.74 78.18L166.60 78.32L167.00 78.75L161.77 79.16L159.79 80.95L163.71 82.40L168.90 83.34L169.40 83.83L172.28 84.04L173.22 84.41L175.99 84.16L178.28 84.47Z"/>
<path d="M32.73 -35.14L34.58 -35.67L33.97 -35.06L32.92 -35.09Z"/>
<path d="M32.73 -35.14L33.97 -35.06L32.98 -34.57L32.26 -35.10Z"/>
<path d="M-2.17 -35.17L-1.12 -32.65L-1.31 -32.26L-3.65 -31.64L-3.69 -30.90L-4.86 -30.50L-5.24 -30.00L-8.67 -28.84L-8.79 -27.12L-11.39 -26.88L-12.50 -24.77L-13.89 -23.69L-14.75 -21.50L-17.00 -21.42L-15.98 -23.72L-15.09 -24.52L-14.44 -26.25L-13.77 -26.62L-12.62 -28.04L-11.69 -28.15L-9.56 -29.93L-9.81 -31.18L-9.30 -32.56L-8.66 -33.24L-6.91 -34.11L-5.93 -35.76L-2.60 -35.18Z"/>
<path d="M36.87 -22.00L25.00 -22.00L25.00 -29.24L24.70 -30.04L24.80 -31.09L25.16 -31.57L26.50 -31.59L28.91 -30.87L30.98 -31.56L31.69 -31.43L31.96 -30.93L32.19 -31.26L33.77 -30.97L34.27 -31.22L34.92 -29.50L34.15 -27.82L33.92 -27.65L33.14 -28.42L32.32 -29.76L34.10 -26.14L35.69 -23.93L35.53 -23.10L36.69 -22.20Z"/>
<path d="M25.00 -22.00L25.00 -20.00L23.85 -20.00L23.84 -19.58L15.86 -23.41L14.14 -22.49L13.58 -23.04L12.00 -23.47L10.77 -24.56L10.30 -24.38L9.32 -26.09L9.72 -26.51L9.86 -28.96L9.48 -30.31L9.97 -30.54L9.95 -31.38L11.43 -32.37L11.49 -33.14L15.25 -32.27L15.71 -31.38L19.09 -30.27L20.05 -30.99L19.82 -31.75L20.85 -32.71L22.90 -32.64L23.24 -32.19L24.92 -31.90L25.16 -31.57L24.80 -31.09L24.70 -30.04L25.00 -29.24L25.00 -25.68Z"/>
<path d="M47.79 -8.00L44.96 -5.00L43.66 -4.96L41.86 -3.92L41.17 -3.92L40.77 -4.26L39.56 -3.42L38.12 -3.60L36.86 -4.45L36.16 -4.45L35.82 -4.78L35.82 -5.34L35.30 -5.51L34.71 -6.59L33.57 -7.71L32.95 -7.78L33.29 -8.35L33.83 -8.38L34.26 -10.63L35.86 -12.58L36.43 -14.42L37.59 -14.21L37.91 -14.96L38.51 -14.51L39.10 -14.74L40.90 -14.12L42.35 -12.54L41.66 -11.63L41.76 -11.05L42.78 -10.93L42.56 -10.57L43.68 -9.18L46.95 -8.00Z"/>
<path d="M42.35 -12.54L43.08 -12.70L43.32 -12.39L43.29 -11.97L42.72 -11.74L43.15 -11.46L42.78 -10.93L41.76 -11.05L41.66 -11.63L42.00 -12.10Z"/>
<path d="M48.95 -11.41L48.94 -9.45L47.79 -8.00L46.95 -8.00L43.68 -9.18L42.56 -10.57L43.15 -11.46L44.12 -10.45L48.95 -11.41Z"/>
<path d="M33.90 0.95L30.77 1.01L29.58 1.34L29.88 -0.60L31.17 -2.20L30.77 -2.34L30.83 -3.51L31.25 -3.78L31.88 -3.56L33.39 -3.79L34.01 -4.25L35.04 -1.91L33.89 -0.11Z"/>
<path d="M30.42 1.13L30.82 1.70L30.76 2.29L29.94 2.35L29.63 2.92L29.02 2.84L29.29 1.62L29.82 1.44Z"/>
<path d="M18.56 -42.65L17.67 -43.03L15.75 -44.82L15.96 -45.23L19.37 -44.86L19.12 -44.42L19.60 -44.04L19.45 -43.57L18.71 -43.20Z"/>
<path d="M22.38 -42.32L22.88 -42.00L22.95 -41.34L21.02 -40.84L20.61 -41.09L20.59 -41.86L21.92 -42.30Z"/>
<path d="M18.83 -45.91L20.22 -46.13L21.48 -45.18L21.56 -44.77L22.71 -44.58L22.41 -44.01L22.99 -43.21L22.38 -42.32L21.58 -42.25L21.78 -42.68L20.81 -43.27L20.26 -42.81L19.22 -43.52L19.60 -44.04L19.12 -44.42L19.37 -44.86L19.01 -44.86L19.39 -45.24L19.07 -45.52Z"/>
<path d="M20.07 -42.59L19.74 -42.69L19.37 -41.88L19.16 -41.96L18.45 -42.48L18.71 -43.20L19.22 -43.52L20.26 -42.81Z"/>
<path d="M20.59 -41.86L20.07 -42.59L20.81 -43.27L21.78 -42.68L21.58 -42.25L20.72 -41.85Z"/>
<path d="M-61.68 -10.76L-60.90 -10.86L-60.94 -10.11L-61.77 -10.00L-61.66 -10.37Z"/>
<path d="M30.83 -3.51L29.72 -4.60L27.98 -4.41L27.21 -5.55L26.47 -5.95L26.21 -6.55L25.12 -7.50L25.11 -7.83L23.89 -8.62L24.54 -8.92L25.07 -10.27L25.79 -10.41L26.75 -9.47L28.97 -9.40L30.00 -10.29L30.84 -9.71L31.35 -9.81L32.40 -11.08L32.07 -11.97L33.21 -12.18L33.21 -10.72L33.72 -10.33L33.97 -8.68L33.83 -8.38L33.29 -8.35L32.95 -7.78L33.57 -7.71L34.08 -7.23L35.30 -5.51L33.39 -3.79L31.88 -3.56L31.25 -3.78Z"/>
</svg>